<svg width="32" height="32" viewBox="0 0 32 32" fill="none" xmlns="http://www.w3.org/2000/svg">
  <mask id="mask0_4925_15736" style="mask-type:luminance" maskUnits="userSpaceOnUse" x="0" y="0" width="32" height="32">
    <path d="M32 0.400024H0V31.6H32V0.400024Z" fill="white"/>
  </mask>
  <g mask="url(#mask0_4925_15736)">
    <path d="M5.667 0.400024H26.334C27.8368 0.40029 29.278 0.997464 30.3405 2.0602C31.4031 3.12294 32 4.56422 32 6.06702V25.933C32 27.4358 31.4031 28.8771 30.3405 29.9398C29.278 31.0026 27.8368 31.5998 26.334 31.6H5.667C4.16402 31.6 2.72259 31.003 1.65983 29.9402C0.597057 28.8774 0 27.436 0 25.933L0 6.06702C0 4.56404 0.597057 3.12262 1.65983 2.05985C2.72259 0.997082 4.16402 0.400024 5.667 0.400024Z" fill="#EAEAEA"/>
    <path d="M32 22.133H0V22.4H32V22.133Z" fill="#ACC6E6"/>
    <path d="M32 6.53302H0V6.80002H32V6.53302Z" fill="#ACC6E6"/>
    <path d="M32 14.267H0V14.534H32V14.267Z" fill="#ACC6E6"/>
    <path d="M30.4108 29.867H1.58984C1.67784 29.959 1.76784 30.048 1.86384 30.134H30.1358L30.4108 29.867Z" fill="#ACC6E6"/>
    <path d="M8.13419 0.400024H7.86719V31.6H8.13419V0.400024Z" fill="#ACC6E6"/>
    <path d="M16.1342 0.400024H15.8672V31.6H16.1342V0.400024Z" fill="#ACC6E6"/>
    <path d="M24.1342 0.400024H23.8672V31.6H24.1342V0.400024Z" fill="#ACC6E6"/>
    <path d="M5.11211 22.451C4.97111 22.451 4.91211 22.424 4.91211 22.251V8.55804C4.91211 8.44904 4.95611 8.39304 5.07411 8.39304H8.54111C8.71611 8.39304 8.74111 8.43104 8.81711 8.56804C10.2531 11.212 13.1541 16.831 13.8521 18.414H13.8741C13.8451 17.783 13.7991 17.156 13.7991 15.05V8.58904C13.7991 8.45404 13.8591 8.38904 13.9991 8.38904H16.3991C16.5541 8.38904 16.6091 8.44904 16.6091 8.60404V22.244C16.6091 22.409 16.5491 22.451 16.3661 22.451H13.2661C13.0901 22.451 13.0271 22.411 12.9661 22.289C11.7761 19.911 8.52511 13.911 7.62911 11.598H7.60011C7.67911 12.832 7.70511 13.698 7.70511 15.704V22.25C7.70511 22.39 7.66311 22.45 7.52611 22.45L5.11211 22.451Z" fill="#1473E6"/>
    <path d="M21.3201 17.9091C21.4271 19.1261 22.3021 20.1351 24.3911 20.1351C25.2979 20.1492 26.1984 19.9812 27.0391 19.641C27.1081 19.598 27.1701 19.618 27.1701 19.741V21.7781C27.1796 21.8323 27.1705 21.8881 27.1444 21.9365C27.1183 21.985 27.0766 22.0232 27.0261 22.0451C25.9872 22.4981 24.8583 22.7071 23.7261 22.6561C19.7021 22.6561 18.2871 19.8881 18.2871 17.234C18.2871 14.265 20.1021 11.5721 23.4701 11.5721C24.0809 11.5478 24.6901 11.652 25.2581 11.8779C25.8261 12.1038 26.3405 12.4463 26.7678 12.8835C27.1951 13.3206 27.526 13.8426 27.7389 14.4156C27.9519 14.9886 28.0422 15.5999 28.0041 16.2101C28.0174 16.6882 27.9839 17.1664 27.9041 17.6381C27.9006 17.6821 27.8812 17.7234 27.8496 17.7543C27.818 17.7851 27.7762 17.8035 27.7321 17.8061C26.9996 17.8895 26.2622 17.9229 25.5251 17.9061L21.3201 17.9091ZM24.1131 15.8091C24.4736 15.8223 24.8346 15.8089 25.1931 15.7691C25.1931 15.7291 25.1931 15.646 25.1931 15.628C25.1861 15.3951 25.1327 15.1659 25.0361 14.9538C24.9395 14.7417 24.8017 14.5509 24.6306 14.3927C24.4595 14.2344 24.2586 14.1118 24.0396 14.032C23.8206 13.9523 23.5879 13.9169 23.3551 13.9281C22.8374 13.9197 22.3363 14.1106 21.9553 14.4612C21.5744 14.8119 21.3427 15.2954 21.3081 15.812L24.1131 15.8091Z" fill="#1473E6"/>
  </g>
</svg>