<?xml version="1.0" encoding="UTF-8"?>
<svg id="Modeler_64" data-name="Modeler 64" xmlns="http://www.w3.org/2000/svg" width="63.999" height="62" viewBox="0 0 63.999 62">
  <g id="ds_appicon_64" transform="translate(0 0)">
    <g id="Surfaces" transform="translate(0)">
      <g id="_3D_Substance_Surface">
        <g id="Outline_no_shadow">
          <path id="Path_185380" data-name="Path 185380" d="M11.33,0H52.669A11.357,11.357,0,0,1,64,11.383V50.617A11.357,11.357,0,0,1,52.669,62H11.33A11.357,11.357,0,0,1,0,50.617V11.383A11.357,11.357,0,0,1,11.33,0Z" fill="#1e3101"/>
        </g>
      </g>
    </g>
    <g id="Outlined_Mnemonics_Logos" transform="translate(7.061 13.69)">
      <g id="Md" transform="translate(0 0)">
        <g id="Group_181968">
          <path id="Path_357412" d="M1.483,3.682A.3.3,0,0,1,1.765,3.4H9.18c.212,0,.424.071.424.282.212.706.424,1.624.706,2.683s.565,2.189.847,3.46.636,2.542.918,3.813c.353,1.271.636,2.542.918,3.813.282,1.2.565,2.4.777,3.389.212,1.059.424,1.907.494,2.542h.071c.141-.565.282-1.412.565-2.4s.565-2.118.918-3.319.706-2.472,1.059-3.813.706-2.613,1.059-3.884.706-2.472.989-3.531.565-1.977.777-2.754c0-.212.212-.282.353-.282h7.273c.141,0,.353.071.353.282h0l.989,27.187a.425.425,0,0,1-.071.282.367.367,0,0,1-.282.141H23.091a.25.25,0,0,1-.282-.282V26.42c0-1.624,0-3.178-.071-4.8v-4.59c0-1.412.071-2.825.071-4.1v-5.3h-.071c-.141.706-.353,1.624-.636,2.825-.282,1.13-.565,2.472-.918,3.884s-.777,2.9-1.2,4.449-.847,3.036-1.2,4.59c-.424,1.483-.777,2.9-1.13,4.237-.353,1.271-.636,2.472-.918,3.46a.448.448,0,0,1-.424.353h-4.59a.531.531,0,0,1-.494-.353c-.212-.989-.494-2.118-.847-3.46-.282-1.342-.636-2.683-.918-4.1-.353-1.412-.636-2.9-1.059-4.378C8.05,17.664,7.7,16.181,7.344,14.84c-.353-1.412-.636-2.683-.847-3.884C6.214,9.755,6,8.625,5.79,7.707h.071V11.1c0,1.271,0,2.754-.071,4.307s-.071,3.248-.141,4.943-.071,3.46-.141,5.3-.141,3.672-.212,5.437a.334.334,0,0,1-.353.353H.353a.425.425,0,0,1-.282-.071A.9.9,0,0,1,0,30.94Z" transform="translate(0 -1.14)" fill="#99e83f"/>
          <path id="Path_357413" d="M54.077,30.776a13.426,13.426,0,0,1-5.72-1.2,8.9,8.9,0,0,1-3.954-3.6,10.641,10.641,0,0,1-1.412-6A11.687,11.687,0,0,1,44.4,14.393a10.288,10.288,0,0,1,4.237-4.1,13.792,13.792,0,0,1,6.708-1.554h.565c.212,0,.494.071.777.071V.482c0-.212.071-.282.282-.282h5.367c.141,0,.212.071.282.212V25.621a11.97,11.97,0,0,0,.071,1.554c.071.565.071,1.059.141,1.554a.387.387,0,0,1-.282.424,23.167,23.167,0,0,1-4.307,1.271,28.44,28.44,0,0,1-4.166.353Zm2.613-5.225V13.9c-.212-.071-.494-.071-.706-.141-.282,0-.565-.071-.847-.071a6.129,6.129,0,0,0-2.966.706,5.5,5.5,0,0,0-3.107,5.3,9.321,9.321,0,0,0,.424,2.754,5.442,5.442,0,0,0,1.2,1.907,4.546,4.546,0,0,0,1.765,1.059,7.874,7.874,0,0,0,2.189.353,5.708,5.708,0,0,0,1.13-.071,4.86,4.86,0,0,0,.918-.141Z" transform="translate(-12.626 -0.2)" fill="#99e83f"/>
        </g>
      </g>
    </g>
  </g>
</svg>