<?xml version="1.0" encoding="UTF-8" standalone="no"?>
<!-- Created with Inkscape (http://www.inkscape.org/) -->

<svg
   width="184.09485mm"
   height="184.56905mm"
   viewBox="0 0 184.09485 184.56904"
   version="1.1"
   id="svg5"
   sodipodi:docname="taxonomy.svg"
   inkscape:version="1.3.2 (091e20e, 2023-11-25, custom)"
   xmlns:inkscape="http://www.inkscape.org/namespaces/inkscape"
   xmlns:sodipodi="http://sodipodi.sourceforge.net/DTD/sodipodi-0.dtd"
   xmlns:xlink="http://www.w3.org/1999/xlink"
   xmlns="http://www.w3.org/2000/svg"
   xmlns:svg="http://www.w3.org/2000/svg">
  <sodipodi:namedview
     id="namedview7"
     pagecolor="#ffffff"
     bordercolor="#666666"
     borderopacity="1.0"
     inkscape:pageshadow="2"
     inkscape:pageopacity="0.0"
     inkscape:pagecheckerboard="0"
     inkscape:document-units="mm"
     showgrid="false"
     inkscape:zoom="0.75187993"
     inkscape:cx="305.89991"
     inkscape:cy="274.64492"
     inkscape:window-width="1920"
     inkscape:window-height="1009"
     inkscape:window-x="-8"
     inkscape:window-y="-8"
     inkscape:window-maximized="1"
     inkscape:current-layer="layer5"
     inkscape:showpageshadow="2"
     inkscape:deskcolor="#d1d1d1" />
  <defs
     id="defs2">
    <rect
       x="238.06993"
       y="468.15985"
       width="308.55991"
       height="70.489975"
       id="rect2" />
    <rect
       x="150.11461"
       y="136.96544"
       width="532.84375"
       height="127.99453"
       id="rect14976" />
    <rect
       x="48.826832"
       y="47.785698"
       width="567.95142"
       height="83.481873"
       id="rect6022" />
    <rect
       x="48.826832"
       y="47.785698"
       width="567.95142"
       height="83.481873"
       id="rect6022-3" />
    <rect
       x="48.826832"
       y="47.785698"
       width="567.95142"
       height="83.481873"
       id="rect6022-3-5" />
    <rect
       x="48.826832"
       y="47.785698"
       width="567.95142"
       height="83.481873"
       id="rect6022-3-56" />
    <g
       id="g5009">
      <symbol
         overflow="visible"
         id="symbol2087">
        <path
           style="stroke:none"
           d=""
           id="path5952" />
      </symbol>
      <symbol
         overflow="visible"
         id="symbol5313">
        <path
           style="stroke:none"
           d="m 1.71875,-7.140625 c 0,-0.15625 0,-0.34375 -0.203125,-0.34375 -0.203125,0 -0.203125,0.234375 -0.203125,0.375 V 2.125 c 0,0.15625 0,0.375 0.203125,0.375 C 1.71875,2.5 1.71875,2.3125 1.71875,2.15625 Z m 1.9375,0.03125 c 0,-0.15625 0,-0.375 -0.203125,-0.375 -0.1875,0 -0.1875,0.1875 -0.1875,0.34375 V 2.15625 c 0,0.15625 0,0.34375 0.1875,0.34375 C 3.65625,2.5 3.65625,2.265625 3.65625,2.125 Z m 0,0"
           id="path5156" />
      </symbol>
      <symbol
         overflow="visible"
         id="symbol6889">
        <path
           style="stroke:none"
           d="M 7.78125,-6.59375 C 7.796875,-6.625 7.828125,-6.6875 7.828125,-6.734375 7.828125,-6.796875 7.8125,-6.8125 7.59375,-6.8125 H 0.703125 c -0.21875,0 -0.234375,0.015625 -0.234375,0.078125 0,0.046875 0.03125,0.109375 0.046875,0.140625 L 3.875,0.140625 c 0.078125,0.125 0.109375,0.1875 0.265625,0.1875 0.171875,0 0.203125,-0.0625 0.28125,-0.1875 z m -6.078125,0.5 h 5.46875 l -2.71875,5.484375 z m 0,0"
           id="path229" />
      </symbol>
      <symbol
         overflow="visible"
         id="symbol4773">
        <path
           style="stroke:none"
           d="m 6.734375,-5.921875 c 0.109375,-0.046875 0.1875,-0.09375 0.1875,-0.21875 0,-0.109375 -0.078125,-0.203125 -0.203125,-0.203125 -0.046875,0 -0.140625,0.046875 -0.171875,0.0625 L 1.03125,-3.671875 c -0.171875,0.078125 -0.203125,0.140625 -0.203125,0.21875 0,0.09375 0.0625,0.15625 0.203125,0.21875 l 5.515625,2.59375 C 6.671875,-0.5625 6.6875,-0.5625 6.71875,-0.5625 c 0.109375,0 0.203125,-0.09375 0.203125,-0.203125 C 6.921875,-0.859375 6.875,-0.921875 6.703125,-1 L 1.5,-3.453125 Z M 6.5625,1.359375 c 0.171875,0 0.359375,0 0.359375,-0.1875 0,-0.203125 -0.21875,-0.203125 -0.359375,-0.203125 h -5.375 c -0.15625,0 -0.359375,0 -0.359375,0.203125 0,0.1875 0.171875,0.1875 0.34375,0.1875 z m 0,0"
           id="path4166" />
      </symbol>
      <symbol
         overflow="visible"
         id="symbol2032">
        <path
           style="stroke:none"
           d=""
           id="path6477" />
      </symbol>
      <symbol
         overflow="visible"
         id="symbol3300">
        <path
           style="stroke:none"
           d="m 3.65625,-3.984375 h 0.859375 c 0.203125,0 0.296875,0 0.296875,-0.203125 0,-0.109375 -0.09375,-0.109375 -0.265625,-0.109375 H 3.71875 L 3.921875,-5.4375 c 0.046875,-0.203125 0.1875,-0.90625 0.25,-1.03125 0.078125,-0.1875 0.25,-0.34375 0.46875,-0.34375 0.03125,0 0.296875,0 0.484375,0.1875 -0.4375,0.03125 -0.546875,0.390625 -0.546875,0.53125 0,0.234375 0.1875,0.359375 0.375,0.359375 C 5.21875,-5.734375 5.5,-5.96875 5.5,-6.34375 c 0,-0.453125 -0.453125,-0.6875 -0.859375,-0.6875 -0.34375,0 -0.96875,0.1875 -1.265625,1.171875 -0.0625,0.203125 -0.09375,0.3125 -0.328125,1.5625 h -0.6875 c -0.203125,0 -0.3125,0 -0.3125,0.1875 0,0.125 0.09375,0.125 0.28125,0.125 h 0.65625 L 2.25,-0.046875 c -0.1875,0.96875 -0.359375,1.875 -0.875,1.875 -0.046875,0 -0.28125,0 -0.484375,-0.1875 C 1.359375,1.609375 1.453125,1.25 1.453125,1.109375 1.453125,0.875 1.265625,0.75 1.078125,0.75 0.8125,0.75 0.53125,0.984375 0.53125,1.359375 c 0,0.4375 0.4375,0.6875 0.84375,0.6875 0.546875,0 0.953125,-0.59375 1.125,-0.96875 0.328125,-0.625 0.546875,-1.828125 0.5625,-1.90625 z m 0,0"
           id="path5682" />
      </symbol>
      <symbol
         overflow="visible"
         id="symbol1519">
        <path
           style="stroke:none"
           d=""
           id="path5745" />
      </symbol>
      <symbol
         overflow="visible"
         id="symbol2558">
        <path
           style="stroke:none"
           d="m 2.9375,-6.375 c 0,-0.25 0,-0.265625 -0.234375,-0.265625 C 2.078125,-6 1.203125,-6 0.890625,-6 v 0.3125 c 0.203125,0 0.78125,0 1.296875,-0.265625 v 5.171875 c 0,0.359375 -0.03125,0.46875 -0.921875,0.46875 h -0.3125 V 0 c 0.34375,-0.03125 1.203125,-0.03125 1.609375,-0.03125 0.390625,0 1.265625,0 1.609375,0.03125 v -0.3125 h -0.3125 c -0.90625,0 -0.921875,-0.109375 -0.921875,-0.46875 z m 0,0"
           id="path1346" />
      </symbol>
    </g>
    <g
       id="g7079">
      <symbol
         overflow="visible"
         id="symbol8996">
        <path
           style="stroke:none"
           d=""
           id="path2759" />
      </symbol>
      <symbol
         overflow="visible"
         id="symbol7856">
        <path
           style="stroke:none"
           d="m 1.71875,-7.140625 c 0,-0.15625 0,-0.34375 -0.203125,-0.34375 -0.203125,0 -0.203125,0.234375 -0.203125,0.375 V 2.125 c 0,0.15625 0,0.375 0.203125,0.375 C 1.71875,2.5 1.71875,2.3125 1.71875,2.15625 Z m 1.9375,0.03125 c 0,-0.15625 0,-0.375 -0.203125,-0.375 -0.1875,0 -0.1875,0.1875 -0.1875,0.34375 V 2.15625 c 0,0.15625 0,0.34375 0.1875,0.34375 C 3.65625,2.5 3.65625,2.265625 3.65625,2.125 Z m 0,0"
           id="path4250" />
      </symbol>
      <symbol
         overflow="visible"
         id="symbol3377">
        <path
           style="stroke:none"
           d="M 7.78125,-6.59375 C 7.796875,-6.625 7.828125,-6.6875 7.828125,-6.734375 7.828125,-6.796875 7.8125,-6.8125 7.59375,-6.8125 H 0.703125 c -0.21875,0 -0.234375,0.015625 -0.234375,0.078125 0,0.046875 0.03125,0.109375 0.046875,0.140625 L 3.875,0.140625 c 0.078125,0.125 0.109375,0.1875 0.265625,0.1875 0.171875,0 0.203125,-0.0625 0.28125,-0.1875 z m -6.078125,0.5 h 5.46875 l -2.71875,5.484375 z m 0,0"
           id="path3578" />
      </symbol>
      <symbol
         overflow="visible"
         id="symbol9033">
        <path
           style="stroke:none"
           d="m 6.734375,-5.921875 c 0.109375,-0.046875 0.1875,-0.09375 0.1875,-0.21875 0,-0.109375 -0.078125,-0.203125 -0.203125,-0.203125 -0.046875,0 -0.140625,0.046875 -0.171875,0.0625 L 1.03125,-3.671875 c -0.171875,0.078125 -0.203125,0.140625 -0.203125,0.21875 0,0.09375 0.0625,0.15625 0.203125,0.21875 l 5.515625,2.59375 C 6.671875,-0.5625 6.6875,-0.5625 6.71875,-0.5625 c 0.109375,0 0.203125,-0.09375 0.203125,-0.203125 C 6.921875,-0.859375 6.875,-0.921875 6.703125,-1 L 1.5,-3.453125 Z M 6.5625,1.359375 c 0.171875,0 0.359375,0 0.359375,-0.1875 0,-0.203125 -0.21875,-0.203125 -0.359375,-0.203125 h -5.375 c -0.15625,0 -0.359375,0 -0.359375,0.203125 0,0.1875 0.171875,0.1875 0.34375,0.1875 z m 0,0"
           id="path3987" />
      </symbol>
      <symbol
         overflow="visible"
         id="symbol9370">
        <path
           style="stroke:none"
           d=""
           id="path7979" />
      </symbol>
      <symbol
         overflow="visible"
         id="symbol1194">
        <path
           style="stroke:none"
           d="m 3.65625,-3.984375 h 0.859375 c 0.203125,0 0.296875,0 0.296875,-0.203125 0,-0.109375 -0.09375,-0.109375 -0.265625,-0.109375 H 3.71875 L 3.921875,-5.4375 c 0.046875,-0.203125 0.1875,-0.90625 0.25,-1.03125 0.078125,-0.1875 0.25,-0.34375 0.46875,-0.34375 0.03125,0 0.296875,0 0.484375,0.1875 -0.4375,0.03125 -0.546875,0.390625 -0.546875,0.53125 0,0.234375 0.1875,0.359375 0.375,0.359375 C 5.21875,-5.734375 5.5,-5.96875 5.5,-6.34375 c 0,-0.453125 -0.453125,-0.6875 -0.859375,-0.6875 -0.34375,0 -0.96875,0.1875 -1.265625,1.171875 -0.0625,0.203125 -0.09375,0.3125 -0.328125,1.5625 h -0.6875 c -0.203125,0 -0.3125,0 -0.3125,0.1875 0,0.125 0.09375,0.125 0.28125,0.125 h 0.65625 L 2.25,-0.046875 c -0.1875,0.96875 -0.359375,1.875 -0.875,1.875 -0.046875,0 -0.28125,0 -0.484375,-0.1875 C 1.359375,1.609375 1.453125,1.25 1.453125,1.109375 1.453125,0.875 1.265625,0.75 1.078125,0.75 0.8125,0.75 0.53125,0.984375 0.53125,1.359375 c 0,0.4375 0.4375,0.6875 0.84375,0.6875 0.546875,0 0.953125,-0.59375 1.125,-0.96875 0.328125,-0.625 0.546875,-1.828125 0.5625,-1.90625 z m 0,0"
           id="path9616" />
      </symbol>
      <symbol
         overflow="visible"
         id="symbol1383">
        <path
           style="stroke:none"
           d=""
           id="path1230" />
      </symbol>
      <symbol
         overflow="visible"
         id="symbol5474">
        <path
           style="stroke:none"
           d="m 2.9375,-6.375 c 0,-0.25 0,-0.265625 -0.234375,-0.265625 C 2.078125,-6 1.203125,-6 0.890625,-6 v 0.3125 c 0.203125,0 0.78125,0 1.296875,-0.265625 v 5.171875 c 0,0.359375 -0.03125,0.46875 -0.921875,0.46875 h -0.3125 V 0 c 0.34375,-0.03125 1.203125,-0.03125 1.609375,-0.03125 0.390625,0 1.265625,0 1.609375,0.03125 v -0.3125 h -0.3125 c -0.90625,0 -0.921875,-0.109375 -0.921875,-0.46875 z m 0,0"
           id="path9812" />
      </symbol>
    </g>
  </defs>
  <g
     inkscape:label="Layer 1"
     inkscape:groupmode="layer"
     id="layer1"
     transform="translate(-12.565988,-12.290521)"
     style="display:inline">
    <rect
       style="fill:#638ef0;fill-opacity:1;stroke:#000000;stroke-width:0.705556;stroke-linejoin:round;stop-color:#000000"
       id="rect846"
       width="183.3893"
       height="183.86349"
       x="12.918766"
       y="12.643299"
       ry="2.6890397" />
    <rect
       style="fill:#f3f3f3;fill-opacity:1;stroke:none;stroke-width:0.705556;stroke-linejoin:round;stop-color:#000000"
       id="rect75656"
       width="75.210526"
       height="16.14599"
       x="17.935289"
       y="16.178724"
       ry="1.9098604" />
    <g
       aria-label="Signed implicit"
       transform="matrix(0.26458333,0,0,0.26458333,8.1016776,4.2149523)"
       id="text6020"
       style="font-size:42.6667px;line-height:1.25;font-family:'Liberation Serif';-inkscape-font-specification:'Liberation Serif';white-space:pre;shape-inside:url(#rect6022)">
      <path
         d="m 59.151513,85.1275 c -2.389335,0 -5.461338,-2.090668 -6.784005,-4.608004 l -0.426667,0.04267 c -0.170667,1.536001 -0.640001,3.114669 -0.981334,4.39467 l 0.08533,0.128 c 0,0 2.773336,1.920002 7.765339,1.920002 5.248004,0 9.301341,-3.200003 9.301341,-8.14934 0,-4.949337 -4.224004,-7.210672 -7.637339,-8.53334 -2.176002,-0.810667 -5.205338,-2.048001 -5.205338,-5.589337 0,-1.536001 0.853334,-3.242669 1.962668,-3.840003 0.725334,-0.384 1.621335,-0.512 2.602669,-0.512 2.346668,0 4.65067,1.834668 5.802671,4.480003 l 0.426667,-0.04267 c 0.170667,-1.536001 0.597334,-2.986668 0.981334,-4.266669 l -0.08533,-0.128001 c 0,0 -1.792002,-1.920001 -6.784005,-1.920001 -1.152001,0 -2.432002,0.213334 -3.669336,0.725334 -2.517336,1.066667 -4.693337,3.541336 -4.693337,6.656005 0,4.480003 3.797336,6.570671 7.338672,8.064006 2.773335,1.152001 4.992004,2.560002 4.992004,6.186671 0,3.200003 -2.474669,4.992004 -4.992004,4.992004 z"
         style="font-family:'Linux Biolinum O';-inkscape-font-specification:'Linux Biolinum O'"
         id="path97734" />
      <path
         d="m 73.828798,61.106149 c 0,1.152 1.024001,2.176001 2.176002,2.176001 1.152001,0 2.176002,-1.024001 2.176002,-2.176001 0,-1.152001 -1.024001,-2.176002 -2.176002,-2.176002 -1.152001,0 -2.176002,1.024001 -2.176002,2.176002 z m 0.426667,15.445344 v 2.346669 c 0,3.200002 -0.08533,5.376004 -0.384,7.680006 l 0.08533,0.128 c 0.512001,-0.08533 1.493335,-0.128 2.005335,-0.128 0.512001,0 1.493335,0.04267 2.005335,0.128 l 0.08533,-0.128 c -0.341334,-2.389336 -0.384001,-4.437337 -0.384001,-7.680006 v -3.029336 c 0,-3.200002 0.08533,-4.736003 0.384001,-7.338672 0,-0.384 -0.08533,-0.426667 -0.384001,-0.426667 -0.981334,0.128 -2.816002,0.128 -3.712003,0.04267 l -0.08533,0.128 c 0.256,1.834668 0.384,5.077337 0.384,8.277339 z"
         style="font-family:'Linux Biolinum O';-inkscape-font-specification:'Linux Biolinum O'"
         id="path97736" />
      <path
         d="m 85.818068,91.015504 c 0,-1.408001 1.280001,-2.986669 2.773336,-3.797336 1.237334,0 3.200002,-0.128 3.797336,-0.128 2.048001,0 3.328002,0.04267 4.52267,0.725334 1.237334,0.725334 1.664001,1.962668 1.664001,3.072002 0,2.602669 -3.498669,3.968003 -7.168005,3.968003 -2.773336,0 -5.589338,-0.938667 -5.589338,-3.840003 z M 98.148744,74.418159 c 0,-2.944003 -1.152001,-4.309337 -2.176001,-4.949337 1.280001,0.08533 2.688002,0.256 4.480007,0.426667 l 0.128,-0.128001 c -0.0853,-0.384 -0.128,-0.725333 -0.128,-1.109334 0,-0.384 0.0427,-0.725334 0.128,-1.109334 l -0.128,-0.128 c -2.048006,0.213333 -3.584007,0.64 -6.741342,0.810667 -0.768001,-0.256 -1.706668,-0.384 -2.602669,-0.384 -3.370669,0 -7.253339,2.261335 -7.253339,6.485338 0,3.200003 1.834668,4.65067 3.029336,5.333337 -1.237334,0.853334 -2.730669,2.090669 -2.730669,3.541336 0,1.749335 1.024001,3.285336 3.285336,3.712003 -1.152001,0.469334 -2.517335,1.280001 -3.584003,2.133335 -0.554667,0.810667 -0.981334,2.048002 -0.981334,2.816002 0,3.370669 3.669336,4.821337 8.192006,4.821337 6.656005,0 10.624008,-2.773335 10.624008,-6.784005 0,-1.877335 -0.59733,-3.200002 -1.792001,-4.224003 -1.621335,-1.365334 -4.52267,-1.408001 -6.016005,-1.408001 -0.725333,0 -2.432001,0.08533 -3.413335,0.213333 -0.597334,0.04267 -1.024001,0.08533 -1.237335,0.08533 -1.194667,0 -2.474668,-0.170667 -2.474668,-2.005335 0,-0.853334 0.213333,-1.578668 1.152001,-2.389335 0.554667,0.298667 1.834668,0.597334 3.157335,0.597334 4.437337,0 7.082672,-2.986669 7.082672,-6.357338 z m -3.328002,0.04267 c 0,2.602669 -1.066668,4.608004 -3.62667,4.608004 -3.072002,0 -4.010669,-2.005335 -4.010669,-4.949337 0,-2.816002 1.280001,-4.65067 3.754669,-4.65067 2.773336,0 3.88267,1.962668 3.88267,4.992003 z"
         style="font-family:'Linux Biolinum O';-inkscape-font-specification:'Linux Biolinum O'"
         id="path97738" />
      <path
         d="m 122.42604,78.898162 c 0,-1.365334 0.0853,-2.944002 0.0853,-4.309337 0,-4.437336 -1.45066,-6.741338 -5.29067,-6.741338 -1.62133,0 -4.65067,0.64 -7.38134,3.840003 l -0.0853,-0.128 v -3.114669 c -0.0427,-0.298667 -0.0853,-0.426667 -0.256,-0.426667 -0.98133,0.213333 -2.51734,0.256 -3.456,0.128 l -0.0853,0.128 c 0.29867,1.877335 0.384,5.077337 0.384,8.277339 v 2.346669 c 0,3.200002 -0.0427,5.376004 -0.384,7.680006 l 0.0853,0.128 c 0.512,-0.08533 1.49333,-0.128 2.00533,-0.128 0.512,0 1.49334,0.04267 2.00534,0.128 l 0.0853,-0.128 c -0.34133,-2.432002 -0.384,-4.437337 -0.384,-7.680006 v -4.992004 c 2.176,-2.560002 4.65067,-3.498669 6.18667,-3.498669 2.176,0 3.072,0.853334 3.072,4.309336 v 4.181337 c 0,3.200002 -0.0853,5.418671 -0.384,7.680006 l 0.0853,0.128 c 0.512,-0.08533 1.49333,-0.128 2.00533,-0.128 0.512,0 1.49334,0.04267 2.00534,0.128 l 0.0853,-0.128 c -0.34133,-2.432002 -0.384,-4.437337 -0.384,-7.680006 z"
         style="font-family:'Linux Biolinum O';-inkscape-font-specification:'Linux Biolinum O'"
         id="path97740" />
      <path
         d="m 131.13003,74.930159 c 0.72533,-4.437337 3.49867,-5.376004 4.864,-5.376004 1.664,0 3.58401,1.578668 3.58401,4.77867 0,0.384 -0.17067,0.597334 -0.59734,0.597334 z m 11.39201,7.210672 c -1.49334,1.621335 -3.49867,2.346668 -5.84534,2.346668 -1.49333,0 -3.49867,-0.554667 -4.65067,-2.432001 -0.768,-1.194668 -1.024,-2.901336 -1.024,-5.418671 h 11.60534 c 0.46933,0 0.768,-0.256 0.768,-0.725334 0,-3.584003 -1.74933,-8.064006 -7.38134,-8.064006 -4.39467,0 -8.74667,3.541336 -8.74667,9.813341 0,2.432001 0.46933,4.821337 1.92,6.528004 1.45067,1.792002 3.88267,2.816003 6.78401,2.816003 3.072,0 5.80267,-1.578668 7.424,-3.797337 z"
         style="font-family:'Linux Biolinum O';-inkscape-font-specification:'Linux Biolinum O'"
         id="path97742" />
      <path
         d="m 160.82601,81.756831 c -1.57867,2.005335 -3.54134,3.029335 -5.248,3.029335 -2.30401,0 -4.26667,-2.304001 -4.26667,-7.637339 0,-6.400005 3.37067,-7.594672 5.46133,-7.594672 2.00534,0 3.02934,0.853334 4.05334,2.474668 z m 0,2.346668 h 0.0853 l 0.21334,2.474669 c 0,0.08533 0.128,0.128 0.384,0.128 0.55466,-0.04267 0.85333,-0.128 1.45067,-0.128 0.55466,0 1.36533,0.04267 1.92,0.128 l 0.0853,-0.128 c -0.34133,-1.834668 -0.72533,-4.992004 -0.72533,-8.192006 V 65.244818 c 0,-3.157335 0.17066,-5.376004 0.384,-8.021339 0,-0.298667 -0.128,-0.426667 -0.384,-0.426667 -1.10934,0.426667 -2.00534,0.725334 -3.71201,0.853334 l -0.0853,0.128 c 0.29867,1.834668 0.384,4.992004 0.384,8.234673 v 2.773335 c -0.98133,-0.554667 -2.73067,-0.938667 -3.584,-0.938667 -5.58934,0 -9.64268,3.840003 -9.64268,9.642674 0,5.248004 3.11467,9.514674 7.72268,9.514674 2.048,0 3.968,-0.896001 5.504,-2.901336 z"
         style="font-family:'Linux Biolinum O';-inkscape-font-specification:'Linux Biolinum O'"
         id="path97744" />
      <path
         d="m 182.11655,61.106149 c 0,1.152 1.024,2.176001 2.176,2.176001 1.152,0 2.17601,-1.024001 2.17601,-2.176001 0,-1.152001 -1.02401,-2.176002 -2.17601,-2.176002 -1.152,0 -2.176,1.024001 -2.176,2.176002 z m 0.42667,15.445344 v 2.346669 c 0,3.200002 -0.0853,5.376004 -0.384,7.680006 l 0.0853,0.128 c 0.512,-0.08533 1.49334,-0.128 2.00534,-0.128 0.512,0 1.49333,0.04267 2.00533,0.128 l 0.0853,-0.128 c -0.34134,-2.389336 -0.384,-4.437337 -0.384,-7.680006 v -3.029336 c 0,-3.200002 0.0853,-4.736003 0.384,-7.338672 0,-0.384 -0.0853,-0.426667 -0.384,-0.426667 -0.98134,0.128 -2.81601,0.128 -3.71201,0.04267 l -0.0853,0.128 c 0.256,1.834668 0.384,5.077337 0.384,8.277339 z"
         style="font-family:'Linux Biolinum O';-inkscape-font-specification:'Linux Biolinum O'"
         id="path97746" />
      <path
         d="m 196.7085,71.55949 v -3.114669 c 0,-0.298667 -0.0853,-0.426667 -0.256,-0.426667 -0.98134,0.213333 -2.51734,0.256 -3.456,0.128 l -0.0853,0.128 c 0.29867,1.877335 0.384,5.077337 0.384,8.277339 v 2.346669 c 0,3.200002 -0.0427,5.376004 -0.384,7.680006 l 0.0853,0.128 c 0.512,-0.08533 1.49333,-0.128 2.00533,-0.128 0.512,0 1.49334,0.04267 2.00534,0.128 l 0.0853,-0.128 c -0.34133,-2.432002 -0.384,-4.437337 -0.384,-7.680006 v -5.162671 c 2.00533,-2.048001 4.39467,-3.328002 5.888,-3.328002 1.62134,0 2.81601,0.938667 2.81601,3.797336 v 4.693337 c 0,3.200002 -0.0427,5.376004 -0.38401,7.680006 l 0.0853,0.128 c 0.512,-0.08533 1.49333,-0.128 2.00533,-0.128 0.512,0 1.49334,0.04267 2.00534,0.128 l 0.0853,-0.128 c -0.34133,-2.432002 -0.384,-4.437337 -0.384,-7.680006 v -4.309337 c 0,-0.597333 0,-1.109334 -0.0427,-1.621334 2.04801,-2.261335 3.75467,-2.560002 5.41868,-2.560002 2.304,0 3.41333,0.938667 3.41333,3.797336 v 4.693337 c 0,3.200002 -0.0427,5.376004 -0.384,7.680006 l 0.0853,0.128 c 0.512,-0.08533 1.49334,-0.128 2.00534,-0.128 0.512,0 1.49333,0.04267 2.00533,0.128 l 0.0853,-0.128 c -0.34134,-2.432002 -0.384,-4.437337 -0.384,-7.680006 v -4.26667 c 0,-3.797336 -0.68267,-6.784005 -5.29067,-6.784005 -2.30401,0 -4.77867,0.810667 -7.21068,3.370669 -0.384,-2.048001 -2.13333,-3.370669 -4.52267,-3.370669 -2.64533,0 -5.16267,1.706668 -7.168,3.840003 z"
         style="font-family:'Linux Biolinum O';-inkscape-font-specification:'Linux Biolinum O'"
         id="path97748" />
      <path
         d="m 231.14049,74.034158 c 0.93867,-2.261335 3.456,-4.224003 5.12,-4.224003 2.90134,0 4.39467,2.645335 4.39467,7.466672 0,3.49867 -0.98133,8.02134 -5.54667,8.02134 -0.68266,0 -2.47467,-0.170667 -3.968,-1.920002 z m 0,-2.474668 v -3.114669 c 0,-0.298667 -0.0853,-0.426667 -0.256,-0.426667 -0.98133,0.213333 -2.51734,0.256 -3.456,0.128 l -0.0853,0.128 c 0.29867,1.877335 0.384,5.077337 0.384,8.277339 v 11.392009 c 0,3.200002 -0.0853,6.272005 -0.384,8.53334 l 0.0853,0.128 c 0.512,-0.08533 1.49333,-0.128 2.00533,-0.128 0.512,0 1.49334,0.04267 2.00534,0.128 l 0.0853,-0.128 c -0.34133,-2.432002 -0.384,-5.290671 -0.384,-8.53334 v -1.877335 c 1.10933,0.597334 2.688,0.938668 4.224,0.938668 5.63201,0 9.04534,-4.26667 9.04534,-10.282675 0,-4.52267 -2.64533,-8.874673 -7.424,-8.874673 -1.664,0 -3.79734,0.853334 -5.76001,3.840003 z"
         style="font-family:'Linux Biolinum O';-inkscape-font-specification:'Linux Biolinum O'"
         id="path97750" />
      <path
         d="m 250.38312,78.044828 c 0,3.200002 -0.0853,6.272005 -0.384,8.53334 l 0.0853,0.128 c 0.512,-0.08533 1.49333,-0.128 2.00533,-0.128 0.512,0 1.49334,0.04267 2.00534,0.128 l 0.0853,-0.128 c -0.34133,-2.432002 -0.384,-5.290671 -0.384,-8.53334 v -12.80001 c 0,-3.200002 0.17067,-5.29067 0.384,-8.021339 0,-0.298667 -0.128,-0.426667 -0.384,-0.426667 -1.10933,0.426667 -2.00533,0.725334 -3.712,0.853334 l -0.0853,0.128 c 0.29867,1.834668 0.384,4.992004 0.384,8.234673 z"
         style="font-family:'Linux Biolinum O';-inkscape-font-specification:'Linux Biolinum O'"
         id="path97752" />
      <path
         d="m 260.70841,61.106149 c 0,1.152 1.024,2.176001 2.176,2.176001 1.152,0 2.176,-1.024001 2.176,-2.176001 0,-1.152001 -1.024,-2.176002 -2.176,-2.176002 -1.152,0 -2.176,1.024001 -2.176,2.176002 z m 0.42667,15.445344 v 2.346669 c 0,3.200002 -0.0853,5.376004 -0.384,7.680006 l 0.0853,0.128 c 0.512,-0.08533 1.49333,-0.128 2.00534,-0.128 0.512,0 1.49333,0.04267 2.00533,0.128 l 0.0853,-0.128 c -0.34133,-2.389336 -0.384,-4.437337 -0.384,-7.680006 v -3.029336 c 0,-3.200002 0.0853,-4.736003 0.384,-7.338672 0,-0.384 -0.0853,-0.426667 -0.384,-0.426667 -0.98133,0.128 -2.816,0.128 -3.712,0.04267 l -0.0853,0.128 c 0.256,1.834668 0.384,5.077337 0.384,8.277339 z"
         style="font-family:'Linux Biolinum O';-inkscape-font-specification:'Linux Biolinum O'"
         id="path97754" />
      <path
         d="m 279.05503,69.554155 c 1.62133,0 3.11467,1.237334 4.26667,3.157336 l 0.55466,-0.04267 0.98134,-3.498669 -0.0853,-0.128 c -1.32266,-0.682668 -3.54133,-1.194668 -5.67467,-1.194668 -4.43733,0 -9.088,3.626669 -9.088,9.42934 0,5.973338 3.37067,9.728008 8.576,9.728008 2.56,0 4.56534,-0.853334 6.27201,-3.029336 l -0.81067,-0.896001 h -0.17067 c -1.62133,1.450668 -2.98667,1.792002 -4.56533,1.792002 -3.11467,0 -5.54667,-2.816002 -5.54667,-7.808006 0,-4.693337 2.47466,-7.509339 5.29067,-7.509339 z"
         style="font-family:'Linux Biolinum O';-inkscape-font-specification:'Linux Biolinum O'"
         id="path97756" />
      <path
         d="m 290.10566,61.106149 c 0,1.152 1.024,2.176001 2.176,2.176001 1.152,0 2.176,-1.024001 2.176,-2.176001 0,-1.152001 -1.024,-2.176002 -2.176,-2.176002 -1.152,0 -2.176,1.024001 -2.176,2.176002 z m 0.42666,15.445344 v 2.346669 c 0,3.200002 -0.0853,5.376004 -0.384,7.680006 l 0.0853,0.128 c 0.512,-0.08533 1.49333,-0.128 2.00533,-0.128 0.512,0 1.49334,0.04267 2.00534,0.128 l 0.0853,-0.128 c -0.34133,-2.389336 -0.384,-4.437337 -0.384,-7.680006 v -3.029336 c 0,-3.200002 0.0853,-4.736003 0.384,-7.338672 0,-0.384 -0.0853,-0.426667 -0.384,-0.426667 -0.98133,0.128 -2.816,0.128 -3.712,0.04267 l -0.0853,0.128 c 0.256,1.834668 0.384,5.077337 0.384,8.277339 z"
         style="font-family:'Linux Biolinum O';-inkscape-font-specification:'Linux Biolinum O'"
         id="path97758" />
      <path
         d="m 301.83892,68.274154 c -0.896,0 -1.792,0 -2.304,-0.08533 -0.29867,0.725333 -0.55467,1.109334 -0.93867,1.749334 l 0.21333,0.298667 c 0.72534,-0.04267 2.04801,-0.04267 3.02934,-0.08533 v 5.845337 c 0,2.560002 -0.128,5.632005 -0.128,6.912006 0,2.773335 1.792,4.096003 3.75467,4.096003 1.792,0 3.15733,-0.426667 4.94934,-1.578668 l -0.55467,-1.024001 c -1.28,0.426667 -2.26134,0.469334 -3.328,0.298667 -1.024,-0.128 -1.408,-1.152001 -1.408,-3.498669 0,-1.280001 0.128,-3.114669 0.128,-5.674671 v -5.376004 h 1.62133 c 1.024,0 2.47467,0.04267 3.072,0.08533 0.128,-0.682667 0.256,-1.109334 0.512,-1.749335 l -0.21333,-0.298666 c -0.768,0.04267 -2.00534,0.08533 -2.98667,0.08533 h -2.00533 c 0,-3.157336 0,-3.754669 0.21333,-6.229338 0,-0.298667 -0.128,-0.426667 -0.384,-0.426667 -1.10934,0.426667 -1.62134,0.896001 -2.98667,1.066667 l -0.0853,0.128001 c -0.0853,1.493334 -0.17067,2.986668 -0.17067,5.461337 z"
         style="font-family:'Linux Biolinum O';-inkscape-font-specification:'Linux Biolinum O'"
         id="path97760" />
    </g>
  </g>
  <g
     inkscape:groupmode="layer"
     id="layer2"
     inkscape:label="Layer 2"
     style="display:inline">
    <rect
       style="fill:#89aaf5;fill-opacity:1;stroke:#000000;stroke-width:0.720468;stroke-linejoin:round;stop-color:#000000"
       id="rect848"
       width="150.50772"
       height="152.65561"
       x="39.725281"
       y="36.246231"
       ry="2.7472346"
       transform="translate(-12.565988,-12.290521)" />
    <rect
       style="fill:#f3f3f3;fill-opacity:1;stroke:none;stroke-width:0.770849;stroke-linejoin:round;stop-color:#000000"
       id="rect75656-9"
       width="90.139359"
       height="16.080696"
       x="44.21862"
       y="40.812721"
       ry="1.902137"
       transform="translate(-12.565988,-12.290521)" />
    <g
       aria-label="Lower-bound SDF"
       transform="matrix(0.26458333,0,0,0.26458333,22.050885,17.228915)"
       id="text6020-6"
       style="font-size:42.6667px;line-height:1.25;font-family:'Liberation Serif';-inkscape-font-specification:'Liberation Serif';white-space:pre;shape-inside:url(#rect6022-3)">
      <path
         d="m 56.975511,67.591487 c 0,-3.200003 0.08533,-6.272005 0.426667,-8.53334 l -0.04267,-0.128 c -0.512001,0.08533 -1.706668,0.128 -2.218669,0.128 -0.512,0 -1.664001,-0.04267 -2.176001,-0.128 l -0.08533,0.128 c 0.341334,2.432002 0.426667,5.333337 0.426667,8.53334 v 10.453341 c 0,3.200002 -0.08533,6.229338 -0.426667,8.53334 l 0.04267,0.128 c 0,0 0.768,-0.128 2.218668,-0.128 h 11.648009 c 0.896001,0 1.877335,0.04267 2.560002,0.128 l 0.08533,-0.128 c -0.04267,-0.597334 -0.08533,-1.450668 -0.08533,-1.877335 0,-0.426667 0.04267,-1.152001 0.08533,-1.493335 l -0.08533,-0.170666 c 0,0 -6.314672,0.938667 -12.032009,0.938667 -0.298667,-1.024001 -0.341334,-5.205337 -0.341334,-5.930671 z"
         style="font-family:'Linux Biolinum O';-inkscape-font-specification:'Linux Biolinum O'"
         id="path97705" />
      <path
         d="m 72.42083,77.831494 c 0,5.120004 3.370669,9.173341 9.04534,9.173341 5.632005,0 9.04534,-3.968003 9.04534,-9.557341 0,-5.802671 -3.114669,-9.600007 -8.874673,-9.600007 -5.589337,0 -9.216007,3.925336 -9.216007,9.984007 z m 8.91734,-8.277339 c 4.52267,0 5.418671,3.498669 5.418671,8.66134 0,4.096003 -2.048002,7.082672 -4.90667,7.082672 -4.52267,0 -5.674671,-4.906671 -5.674671,-8.192006 0,-3.712003 1.152001,-7.552006 5.16267,-7.552006 z"
         style="font-family:'Linux Biolinum O';-inkscape-font-specification:'Linux Biolinum O'"
         id="path97707" />
      <path
         d="m 100.58069,86.748834 c 0.42667,-0.128 0.98133,-0.128 1.408,-0.128 0.42667,0 1.152,0 1.536,0.128 1.152,-3.242669 2.38934,-6.784005 3.75467,-10.112007 1.28,3.328002 2.64534,6.784005 3.88267,10.069341 0.42667,-0.128 0.68267,-0.128 1.10933,-0.128 0.42667,0 1.19467,0 1.57867,0.128 2.09067,-5.034671 5.50401,-13.226677 7.93601,-18.560014 -0.384,0.128 -1.408,0.128 -1.83467,0.128 -0.42667,0 -1.06667,0 -1.45067,-0.128 -1.57867,5.03467 -3.49867,10.496008 -5.29067,14.592011 h -0.34133 c -1.74934,-4.693337 -3.07201,-10.069341 -4.05334,-14.592011 -0.55467,0.128 -1.536,0.128 -2.13333,0.128 -0.68267,0 -1.79201,0 -2.47467,-0.128 0.55466,1.749335 1.23733,3.626669 1.96267,5.589337 -1.10934,3.200003 -2.30401,6.400005 -3.54134,9.04534 h -0.256 c -2.13334,-4.864003 -3.541337,-9.68534 -5.077338,-14.59201 -0.554667,0.128 -1.536001,0.128 -2.133335,0.128 -0.682667,0 -1.792001,0 -2.474668,-0.128 2.858669,6.272004 5.504004,12.330675 7.893341,18.560013 z"
         style="font-family:'Linux Biolinum O';-inkscape-font-specification:'Linux Biolinum O'"
         id="path97709" />
      <path
         d="m 127.63124,74.930159 c 0.72534,-4.437337 3.49867,-5.376004 4.86401,-5.376004 1.664,0 3.584,1.578668 3.584,4.77867 0,0.384 -0.17067,0.597334 -0.59734,0.597334 z m 11.39201,7.210672 c -1.49333,1.621335 -3.49867,2.346668 -5.84534,2.346668 -1.49333,0 -3.49867,-0.554667 -4.65067,-2.432001 -0.768,-1.194668 -1.024,-2.901336 -1.024,-5.418671 h 11.60534 c 0.46934,0 0.768,-0.256 0.768,-0.725334 0,-3.584003 -1.74933,-8.064006 -7.38133,-8.064006 -4.39467,0 -8.74668,3.541336 -8.74668,9.813341 0,2.432001 0.46934,4.821337 1.92,6.528004 1.45067,1.792002 3.88267,2.816003 6.78401,2.816003 3.072,0 5.80267,-1.578668 7.424,-3.797337 z"
         style="font-family:'Linux Biolinum O';-inkscape-font-specification:'Linux Biolinum O'"
         id="path97711" />
      <path
         d="m 148.75122,72.32749 v -3.882669 c 0,-0.298667 -0.0853,-0.426667 -0.256,-0.426667 -0.98133,0.213333 -2.51733,0.256 -3.456,0.128 l -0.0853,0.128 c 0.29866,1.877335 0.384,5.077337 0.384,8.277339 v 2.346669 c 0,3.200002 -0.0853,5.418671 -0.384,7.680006 l 0.0853,0.128 c 0.512,-0.08533 1.49334,-0.128 2.00534,-0.128 0.512,0 1.49333,0.04267 2.00533,0.128 l 0.0853,-0.128 c -0.34133,-2.432002 -0.384,-4.437337 -0.384,-7.680006 v -2.218668 c 0,-1.792002 0.512,-2.816003 1.45067,-4.224004 0.59734,-0.938667 1.57867,-1.493334 2.38934,-1.493334 0.85333,0 1.664,0.08533 2.21866,0.597334 l 0.34134,-0.08533 0.85333,-3.157335 -0.17066,-0.170667 c -0.72534,-0.213334 -0.768,-0.298667 -1.53601,-0.298667 -2.304,0 -3.54133,1.322668 -5.41867,4.565337 z"
         style="font-family:'Linux Biolinum O';-inkscape-font-specification:'Linux Biolinum O'"
         id="path97713" />
      <path
         d="m 168.46321,76.508827 c 0.55467,0 1.152,-1.066668 1.152,-1.536001 0,-0.384001 -0.17066,-0.768001 -0.59733,-0.768001 h -9.77067 c -0.512,0 -1.06667,0.896001 -1.06667,1.578668 0,0.384 0.256,0.725334 0.64,0.725334 z"
         style="font-family:'Linux Biolinum O';-inkscape-font-specification:'Linux Biolinum O'"
         id="path97715" />
      <path
         d="M 177.89248,83.122165 V 72.07149 c 1.664,-1.706668 2.73067,-2.517335 4.48,-2.517335 2.60267,0 4.90668,2.176002 4.90668,7.466672 0,5.290671 -1.57867,8.27734 -5.63201,8.27734 -1.32267,0 -2.90133,-1.109335 -3.75467,-2.176002 z m 0,-17.877347 c 0,-3.157335 0.0427,-5.376004 0.256,-8.021339 0,-0.298667 -0.128,-0.426667 -0.384,-0.426667 -1.10933,0.426667 -2.00533,0.725334 -3.712,0.853334 l -0.0853,0.128 c 0.29866,1.834668 0.512,4.992004 0.512,8.234673 v 17.45068 c 0,1.664001 -0.0427,2.304001 -0.21334,3.200002 0.256,0.256 0.72534,0.341334 1.19467,0.341334 0.46933,-0.512001 0.93867,-1.237335 1.408,-2.090669 1.23734,1.066668 3.2,2.090669 5.03467,2.090669 4.352,0 9.17334,-3.072003 9.17334,-10.325341 0,-5.205338 -3.712,-8.832007 -7.85067,-8.832007 -2.048,0 -3.88267,0.554667 -5.33334,2.133335 z"
         style="font-family:'Linux Biolinum O';-inkscape-font-specification:'Linux Biolinum O'"
         id="path97717" />
      <path
         d="m 194.53241,77.831494 c 0,5.120004 3.37067,9.173341 9.04534,9.173341 5.632,0 9.04534,-3.968003 9.04534,-9.557341 0,-5.802671 -3.11467,-9.600007 -8.87468,-9.600007 -5.58933,0 -9.216,3.925336 -9.216,9.984007 z m 8.91734,-8.277339 c 4.52267,0 5.41867,3.498669 5.41867,8.66134 0,4.096003 -2.048,7.082672 -4.90667,7.082672 -4.52267,0 -5.67467,-4.906671 -5.67467,-8.192006 0,-3.712003 1.152,-7.552006 5.16267,-7.552006 z"
         style="font-family:'Linux Biolinum O';-inkscape-font-specification:'Linux Biolinum O'"
         id="path97719" />
      <path
         d="m 229.81768,82.652831 0.17067,0.128 0.21333,3.797337 c 0,0.08533 0.0427,0.128 0.17067,0.128 0.55467,-0.04267 1.06667,-0.128 1.664,-0.128 0.55467,0 1.36534,0.04267 1.92,0.128 l 0.0853,-0.128 c -0.34134,-1.834668 -0.72534,-4.992004 -0.72534,-8.192006 V 75.95416 c 0,-3.200003 0.0427,-5.418671 0.384,-7.680006 l -0.0853,-0.128 c -0.512,0.08533 -1.49333,0.128 -2.00533,0.128 -0.51201,0 -1.49334,-0.04267 -2.00534,-0.128 l -0.0853,0.128 c 0.29866,2.474668 0.384,4.437337 0.384,7.680006 v 4.181336 c -1.32267,2.218668 -3.75467,4.480003 -5.84534,4.480003 -1.49333,0 -2.85867,-0.469333 -2.85867,-4.437336 V 75.95416 c 0,-3.200003 0.0427,-5.418671 0.384,-7.680006 l -0.0853,-0.128 c -0.512,0.08533 -1.49334,0.128 -2.00534,0.128 -0.512,0 -1.49333,-0.04267 -2.00533,-0.128 l -0.0853,0.128 c 0.34134,2.432002 0.384,4.437337 0.384,7.680006 v 5.120004 c 0,2.944002 1.36534,5.930671 5.58934,5.930671 2.64534,0 5.03467,-2.176002 6.44267,-4.352004 z"
         style="font-family:'Linux Biolinum O';-inkscape-font-specification:'Linux Biolinum O'"
         id="path97721" />
      <path
         d="m 256.78299,78.898162 c 0,-1.365334 0.0853,-2.944002 0.0853,-4.309337 0,-4.437336 -1.45067,-6.741338 -5.29067,-6.741338 -1.62134,0 -4.65068,0.64 -7.38134,3.840003 l -0.0853,-0.128 v -3.114669 c -0.0427,-0.298667 -0.0853,-0.426667 -0.256,-0.426667 -0.98133,0.213333 -2.51733,0.256 -3.456,0.128 l -0.0853,0.128 c 0.29866,1.877335 0.384,5.077337 0.384,8.277339 v 2.346669 c 0,3.200002 -0.0427,5.376004 -0.384,7.680006 l 0.0853,0.128 c 0.512,-0.08533 1.49333,-0.128 2.00533,-0.128 0.51201,0 1.49334,0.04267 2.00534,0.128 l 0.0853,-0.128 c -0.34133,-2.432002 -0.384,-4.437337 -0.384,-7.680006 v -4.992004 c 2.176,-2.560002 4.65067,-3.498669 6.18667,-3.498669 2.17601,0 3.07201,0.853334 3.07201,4.309336 v 4.181337 c 0,3.200002 -0.0853,5.418671 -0.384,7.680006 l 0.0853,0.128 c 0.512,-0.08533 1.49333,-0.128 2.00533,-0.128 0.512,0 1.49334,0.04267 2.00534,0.128 l 0.0853,-0.128 c -0.34133,-2.432002 -0.384,-4.437337 -0.384,-7.680006 z"
         style="font-family:'Linux Biolinum O';-inkscape-font-specification:'Linux Biolinum O'"
         id="path97723" />
      <path
         d="m 275.55632,81.756831 c -1.57867,2.005335 -3.54134,3.029335 -5.24801,3.029335 -2.304,0 -4.26666,-2.304001 -4.26666,-7.637339 0,-6.400005 3.37066,-7.594672 5.46133,-7.594672 2.00534,0 3.02934,0.853334 4.05334,2.474668 z m 0,2.346668 h 0.0853 l 0.21334,2.474669 c 0,0.08533 0.128,0.128 0.384,0.128 0.55466,-0.04267 0.85333,-0.128 1.45066,-0.128 0.55467,0 1.36534,0.04267 1.92001,0.128 l 0.0853,-0.128 C 279.3536,84.7435 278.96959,81.586164 278.96959,78.386162 V 65.244818 c 0,-3.157335 0.17067,-5.376004 0.38401,-8.021339 0,-0.298667 -0.12801,-0.426667 -0.38401,-0.426667 -1.10933,0.426667 -2.00533,0.725334 -3.712,0.853334 l -0.0853,0.128 c 0.29867,1.834668 0.384,4.992004 0.384,8.234673 v 2.773335 c -0.98134,-0.554667 -2.73067,-0.938667 -3.584,-0.938667 -5.58934,0 -9.64268,3.840003 -9.64268,9.642674 0,5.248004 3.11467,9.514674 7.72267,9.514674 2.04801,0 3.96801,-0.896001 5.50401,-2.901336 z"
         style="font-family:'Linux Biolinum O';-inkscape-font-specification:'Linux Biolinum O'"
         id="path97725" />
      <path
         d="m 303.75887,85.1275 c -2.38933,0 -5.46133,-2.090668 -6.784,-4.608004 l -0.42667,0.04267 c -0.17067,1.536001 -0.64,3.114669 -0.98133,4.39467 l 0.0853,0.128 c 0,0 2.77334,1.920002 7.76534,1.920002 5.248,0 9.30134,-3.200003 9.30134,-8.14934 0,-4.949337 -4.224,-7.210672 -7.63734,-8.53334 -2.176,-0.810667 -5.20534,-2.048001 -5.20534,-5.589337 0,-1.536001 0.85334,-3.242669 1.96267,-3.840003 0.72534,-0.384 1.62134,-0.512 2.60267,-0.512 2.34667,0 4.65067,1.834668 5.80267,4.480003 l 0.42667,-0.04267 c 0.17067,-1.536001 0.59733,-2.986668 0.98133,-4.266669 l -0.0853,-0.128001 c 0,0 -1.792,-1.920001 -6.78401,-1.920001 -1.152,0 -2.432,0.213334 -3.66933,0.725334 -2.51734,1.066667 -4.69334,3.541336 -4.69334,6.656005 0,4.480003 3.79734,6.570671 7.33867,8.064006 2.77334,1.152001 4.99201,2.560002 4.99201,6.186671 0,3.200003 -2.47467,4.992004 -4.99201,4.992004 z"
         style="font-family:'Linux Biolinum O';-inkscape-font-specification:'Linux Biolinum O'"
         id="path97727" />
      <path
         d="M 323.1295,83.079498 V 62.51415 c 0,-1.493335 1.49333,-1.706668 3.584,-1.706668 9.21601,0 11.98934,7.082672 11.98934,13.653343 0,8.618673 -4.90667,10.325341 -10.92267,10.325341 -4.18134,0 -4.65067,-0.341333 -4.65067,-1.706668 z m -1.83467,-24.021351 c -1.45067,0 -2.176,-0.128 -2.176,-0.128 l -0.0853,0.128 c 0.34133,2.432002 0.42666,5.333337 0.42666,8.53334 v 10.453341 c 0,3.200002 -0.0853,6.229338 -0.42666,8.53334 l 0.0427,0.128 c 0,0 0.72534,-0.128 2.21867,-0.128 3.02934,0 3.41334,0.08533 7.80801,0.08533 6.016,0 13.99467,-2.730669 13.99467,-13.226677 0,-7.936005 -6.57067,-14.506677 -14.76267,-14.506677 -2.73067,0 -4.30934,0.128 -7.04001,0.128 z"
         style="font-family:'Linux Biolinum O';-inkscape-font-specification:'Linux Biolinum O'"
         id="path97729" />
      <path
         d="m 362.68148,59.058147 h -11.09334 c -1.45067,0 -2.17601,-0.128 -2.17601,-0.128 l -0.0853,0.128 c 0.34133,2.432002 0.42667,5.333337 0.42667,8.53334 v 10.453341 c 0,3.200002 -0.0853,6.229338 -0.42667,8.53334 l 0.0427,0.128 c 0,0 0.72533,-0.128 2.21867,-0.128 1.45066,0 2.176,0.128 2.176,0.128 l 0.0853,-0.128 c -0.34133,-2.432002 -0.42667,-5.333338 -0.42667,-8.53334 v -4.992004 c 2.04801,0 6.57068,0.128 9.51468,0.426667 l 0.128,-0.128 c -0.0853,-0.384 -0.128,-0.981334 -0.128,-1.365334 0,-0.384001 0.0427,-0.981334 0.128,-1.365335 l -0.128,-0.128 c -2.51734,0.213334 -4.48001,0.426667 -9.51468,0.426667 v -3.328002 c 0,-0.725334 0.0427,-5.120004 0.34134,-6.144005 5.71734,0 11.60534,0.512001 11.60534,0.512001 l 0.0853,-0.170667 c -0.0427,-0.341334 -0.0853,-0.896001 -0.0853,-1.280001 0,-0.341334 0.0427,-0.853334 0.0853,-1.450668 l -0.0853,-0.128 c -0.68267,0.08533 -1.664,0.128 -2.688,0.128 z"
         style="font-family:'Linux Biolinum O';-inkscape-font-specification:'Linux Biolinum O'"
         id="path97731" />
    </g>
  </g>
  <g
     inkscape:groupmode="layer"
     id="layer3"
     inkscape:label="Layer 3"
     style="display:inline">
    <rect
       style="display:inline;fill:#b6c8fc;fill-opacity:1;stroke:#000000;stroke-width:0.545774;stroke-linejoin:round;stop-color:#000000"
       id="rect848-7"
       width="124.2361"
       height="120.18002"
       x="59.158993"
       y="60.02422"
       ry="1.9098612"
       transform="translate(-12.565988,-12.290521)" />
    <rect
       style="fill:#ffffff;fill-opacity:1;stroke:none;stroke-width:0.67927;stroke-linejoin:round;stroke-opacity:1;stop-color:#000000"
       id="rect17842"
       width="57.84304"
       height="22.667374"
       x="79.803528"
       y="77.606079"
       ry="1.1902347" />
    <rect
       style="fill:#f3f3f3;fill-opacity:1;stroke:none;stroke-width:0.72693;stroke-linejoin:round;stop-color:#000000"
       id="rect75656-9-1"
       width="79.942261"
       height="16.124615"
       x="63.038162"
       y="63.83762"
       ry="1.9073321"
       transform="translate(-12.565988,-12.290521)" />
    <g
       aria-label="1-Lipschitz SDF"
       transform="matrix(0.26458333,0,0,0.26458333,41.098166,39.964654)"
       id="text6020-6-3"
       style="font-size:42.6667px;line-height:1.25;font-family:'Liberation Serif';-inkscape-font-specification:'Liberation Serif';white-space:pre;shape-inside:url(#rect6022-3-5)">
      <path
         d="M 62.735516,78.514162 V 67.67682 c 0,-4.608003 0.256,-6.314671 0.341333,-6.912005 0,-0.213333 -0.128,-0.213333 -0.298667,-0.213333 -2.773335,0.896 -6.016004,2.560001 -9.344007,3.584002 l 0.256,1.237334 c 1.920002,-0.213333 4.01067,-0.682667 4.864004,-0.682667 0.768001,0 0.768001,1.706668 0.768001,3.242669 v 10.581342 c 0,3.328002 -0.04267,5.632004 -0.341334,8.064006 l 0.04267,0.128 c 0,0 1.194667,-0.128 1.962668,-0.128 0.853334,0 2.048001,0.128 2.048001,0.128 l 0.08533,-0.128 c -0.298667,-2.560002 -0.384,-4.693337 -0.384,-8.064006 z"
         style="font-family:'Linux Biolinum O';-inkscape-font-specification:'Linux Biolinum O'"
         id="path97676" />
      <path
         d="m 80.356786,76.508827 c 0.554667,0 1.152001,-1.066668 1.152001,-1.536001 0,-0.384001 -0.170667,-0.768001 -0.597334,-0.768001 H 71.14078 c -0.512001,0 -1.066668,0.896001 -1.066668,1.578668 0,0.384 0.256,0.725334 0.640001,0.725334 z"
         style="font-family:'Linux Biolinum O';-inkscape-font-specification:'Linux Biolinum O'"
         id="path97678" />
      <path
         d="m 91.023386,67.591487 c 0,-3.200003 0.08533,-6.272005 0.426667,-8.53334 l -0.04267,-0.128 c -0.512,0.08533 -1.706668,0.128 -2.218668,0.128 -0.512001,0 -1.664002,-0.04267 -2.176002,-0.128 l -0.08533,0.128 c 0.341333,2.432002 0.426667,5.333337 0.426667,8.53334 v 10.453341 c 0,3.200002 -0.08533,6.229338 -0.426667,8.53334 l 0.04267,0.128 c 0,0 0.768001,-0.128 2.218669,-0.128 h 11.648008 c 0.896,0 1.87733,0.04267 2.56,0.128 l 0.0853,-0.128 c -0.0427,-0.597334 -0.0853,-1.450668 -0.0853,-1.877335 0,-0.426667 0.0427,-1.152001 0.0853,-1.493335 l -0.0853,-0.170666 c 0,0 -6.314669,0.938667 -12.032007,0.938667 -0.298667,-1.024001 -0.341333,-5.205337 -0.341333,-5.930671 z"
         style="font-family:'Linux Biolinum O';-inkscape-font-specification:'Linux Biolinum O'"
         id="path97680" />
      <path
         d="m 108.26071,61.106149 c 0,1.152 1.024,2.176001 2.176,2.176001 1.152,0 2.176,-1.024001 2.176,-2.176001 0,-1.152001 -1.024,-2.176002 -2.176,-2.176002 -1.152,0 -2.176,1.024001 -2.176,2.176002 z m 0.42667,15.445344 v 2.346669 c 0,3.200002 -0.0853,5.376004 -0.384,7.680006 l 0.0853,0.128 c 0.512,-0.08533 1.49333,-0.128 2.00533,-0.128 0.51201,0 1.49334,0.04267 2.00534,0.128 l 0.0853,-0.128 c -0.34133,-2.389336 -0.384,-4.437337 -0.384,-7.680006 v -3.029336 c 0,-3.200002 0.0853,-4.736003 0.384,-7.338672 0,-0.384 -0.0853,-0.426667 -0.384,-0.426667 -0.98133,0.128 -2.816,0.128 -3.712,0.04267 l -0.0853,0.128 c 0.256,1.834668 0.384,5.077337 0.384,8.277339 z"
         style="font-family:'Linux Biolinum O';-inkscape-font-specification:'Linux Biolinum O'"
         id="path97682" />
      <path
         d="m 122.85265,74.034158 c 0.93867,-2.261335 3.456,-4.224003 5.12,-4.224003 2.90134,0 4.39467,2.645335 4.39467,7.466672 0,3.49867 -0.98133,8.02134 -5.54667,8.02134 -0.68267,0 -2.47467,-0.170667 -3.968,-1.920002 z m 0,-2.474668 v -3.114669 c 0,-0.298667 -0.0853,-0.426667 -0.256,-0.426667 -0.98134,0.213333 -2.51734,0.256 -3.456,0.128 l -0.0853,0.128 c 0.29867,1.877335 0.384,5.077337 0.384,8.277339 v 11.392009 c 0,3.200002 -0.0853,6.272005 -0.384,8.53334 l 0.0853,0.128 c 0.512,-0.08533 1.49333,-0.128 2.00533,-0.128 0.512,0 1.49333,0.04267 2.00534,0.128 l 0.0853,-0.128 c -0.34133,-2.432002 -0.384,-5.290671 -0.384,-8.53334 v -1.877335 c 1.10933,0.597334 2.688,0.938668 4.224,0.938668 5.63201,0 9.04534,-4.26667 9.04534,-10.282675 0,-4.52267 -2.64533,-8.874673 -7.424,-8.874673 -1.66401,0 -3.79734,0.853334 -5.76001,3.840003 z"
         style="font-family:'Linux Biolinum O';-inkscape-font-specification:'Linux Biolinum O'"
         id="path97684" />
      <path
         d="m 140.38861,82.268831 -0.72534,3.584003 c 2.432,0.853334 4.82134,1.152001 6.44267,1.152001 5.88801,0 7.25334,-3.49867 7.25334,-5.845338 0,-3.498669 -2.77333,-4.864004 -5.80267,-5.589338 -1.62133,-0.384 -3.968,-1.194667 -3.968,-3.328002 0,-1.749335 1.408,-2.688002 3.24267,-2.688002 2.21867,0 3.584,1.749335 4.56534,2.901335 l 0.59733,-0.04267 0.85333,-3.157336 -0.0853,-0.128 c -1.23733,-0.640001 -3.584,-1.280001 -5.76,-1.280001 -3.15734,0 -6.44268,1.664001 -6.44268,5.205337 0,3.413336 2.51734,4.565337 5.12001,5.248004 2.47467,0.682667 4.30933,1.365334 4.30933,3.456003 0,2.261335 -1.664,3.541336 -3.92533,3.541336 -2.048,0 -3.84001,-1.408001 -5.03467,-3.072003 z"
         style="font-family:'Linux Biolinum O';-inkscape-font-specification:'Linux Biolinum O'"
         id="path97686" />
      <path
         d="m 165.81796,69.554155 c 1.62133,0 3.11467,1.237334 4.26667,3.157336 l 0.55466,-0.04267 0.98134,-3.498669 -0.0853,-0.128 c -1.32267,-0.682668 -3.54134,-1.194668 -5.67468,-1.194668 -4.43733,0 -9.088,3.626669 -9.088,9.42934 0,5.973338 3.37067,9.728008 8.576,9.728008 2.56001,0 4.56534,-0.853334 6.27201,-3.029336 l -0.81067,-0.896001 h -0.17067 c -1.62133,1.450668 -2.98666,1.792002 -4.56533,1.792002 -3.11467,0 -5.54667,-2.816002 -5.54667,-7.808006 0,-4.693337 2.47467,-7.509339 5.29067,-7.509339 z"
         style="font-family:'Linux Biolinum O';-inkscape-font-specification:'Linux Biolinum O'"
         id="path97688" />
      <path
         d="m 180.70859,71.55949 v -6.357338 c 0,-3.157336 0.17067,-5.333338 0.384,-7.978673 0,-0.298667 -0.128,-0.426667 -0.384,-0.426667 -1.10933,0.426667 -2.00533,0.725334 -3.712,0.853334 l -0.0853,0.128 c 0.29866,1.834668 0.384,5.034671 0.384,8.27734 v 12.842676 c 0,3.200002 -0.0853,5.29067 -0.384,7.680006 l 0.0853,0.128 c 0.512,-0.08533 1.49333,-0.128 2.00533,-0.128 0.512,0 1.49334,0.04267 2.00534,0.128 l 0.0853,-0.128 c -0.34133,-2.432002 -0.384,-4.437337 -0.384,-7.680006 v -4.992004 c 2.176,-2.560002 4.65067,-3.498669 6.18667,-3.498669 2.17601,0 3.07201,0.853334 3.07201,4.309336 v 4.181337 c 0,3.200002 -0.0427,5.418671 -0.384,7.680006 l 0.0853,0.128 c 0.512,-0.08533 1.49333,-0.128 2.00533,-0.128 0.512,0 1.49334,0.04267 2.00534,0.128 l 0.0853,-0.128 c -0.34133,-2.432002 -0.384,-4.437337 -0.384,-7.680006 0,-1.365334 0.0853,-2.944002 0.0853,-4.309337 0,-4.437336 -1.45067,-6.741338 -5.29068,-6.741338 -1.62133,0 -4.65067,0.64 -7.38133,3.840003 z"
         style="font-family:'Linux Biolinum O';-inkscape-font-specification:'Linux Biolinum O'"
         id="path97690" />
      <path
         d="m 200.29259,61.106149 c 0,1.152 1.024,2.176001 2.176,2.176001 1.15201,0 2.17601,-1.024001 2.17601,-2.176001 0,-1.152001 -1.024,-2.176002 -2.17601,-2.176002 -1.152,0 -2.176,1.024001 -2.176,2.176002 z m 0.42667,15.445344 v 2.346669 c 0,3.200002 -0.0853,5.376004 -0.384,7.680006 l 0.0853,0.128 c 0.512,-0.08533 1.49334,-0.128 2.00534,-0.128 0.512,0 1.49333,0.04267 2.00533,0.128 l 0.0853,-0.128 c -0.34134,-2.389336 -0.384,-4.437337 -0.384,-7.680006 v -3.029336 c 0,-3.200002 0.0853,-4.736003 0.384,-7.338672 0,-0.384 -0.0853,-0.426667 -0.384,-0.426667 -0.98134,0.128 -2.81601,0.128 -3.71201,0.04267 l -0.0853,0.128 c 0.256,1.834668 0.384,5.077337 0.384,8.277339 z"
         style="font-family:'Linux Biolinum O';-inkscape-font-specification:'Linux Biolinum O'"
         id="path97692" />
      <path
         d="m 212.02587,68.274154 c -0.896,0 -1.792,0 -2.304,-0.08533 -0.29867,0.725333 -0.55467,1.109334 -0.93867,1.749334 l 0.21333,0.298667 c 0.72534,-0.04267 2.04801,-0.04267 3.02934,-0.08533 v 5.845337 c 0,2.560002 -0.128,5.632005 -0.128,6.912006 0,2.773335 1.792,4.096003 3.75467,4.096003 1.792,0 3.15734,-0.426667 4.94934,-1.578668 l -0.55467,-1.024001 c -1.28,0.426667 -2.26134,0.469334 -3.328,0.298667 -1.024,-0.128 -1.408,-1.152001 -1.408,-3.498669 0,-1.280001 0.128,-3.114669 0.128,-5.674671 v -5.376004 h 1.62133 c 1.024,0 2.47467,0.04267 3.072,0.08533 0.128,-0.682667 0.256,-1.109334 0.512,-1.749335 l -0.21333,-0.298666 c -0.768,0.04267 -2.00533,0.08533 -2.98667,0.08533 h -2.00533 c 0,-3.157336 0,-3.754669 0.21333,-6.229338 0,-0.298667 -0.128,-0.426667 -0.384,-0.426667 -1.10933,0.426667 -1.62133,0.896001 -2.98667,1.066667 l -0.0853,0.128001 c -0.0853,1.493334 -0.17067,2.986668 -0.17067,5.461337 z"
         style="font-family:'Linux Biolinum O';-inkscape-font-specification:'Linux Biolinum O'"
         id="path97694" />
      <path
         d="m 228.23913,84.658166 9.81334,-14.592011 c 0.72533,-1.066667 1.024,-1.493334 1.28,-1.792001 0,-0.170667 -0.0853,-0.256 -0.256,-0.256 -0.21333,0 -2.176,0.256 -3.41333,0.256 h -8.70401 c -0.85333,0 -1.74934,-0.04267 -2.38934,-0.128 l -0.0853,0.128 c 0.0427,0.554667 0.0853,0.768001 0.0853,1.152001 0,0.384 -0.0427,0.768 -0.0853,1.109334 l 0.0853,0.128 c 0,0 4.82134,-0.384 9.72801,-0.426667 l -10.02667,14.976011 c -0.34134,0.512001 -0.59734,0.938668 -0.93867,1.322668 l 0.128,0.170667 c 0,0 2.21867,-0.128 3.456,-0.128 h 9.64268 c 0.85333,0 1.74933,0.04267 2.38933,0.128 l 0.0853,-0.128 c -0.0427,-0.554667 -0.0853,-0.768001 -0.0853,-1.152001 0,-0.384001 0.0427,-0.768001 0.0853,-1.109334 l -0.0853,-0.128001 c 0,0 -5.504,0.469334 -10.70934,0.469334 z"
         style="font-family:'Linux Biolinum O';-inkscape-font-specification:'Linux Biolinum O'"
         id="path97696" />
      <path
         d="m 261.22035,85.1275 c -2.38934,0 -5.46134,-2.090668 -6.78401,-4.608004 l -0.42667,0.04267 c -0.17066,1.536001 -0.64,3.114669 -0.98133,4.39467 l 0.0853,0.128 c 0,0 2.77334,1.920002 7.76534,1.920002 5.24801,0 9.30134,-3.200003 9.30134,-8.14934 0,-4.949337 -4.224,-7.210672 -7.63734,-8.53334 -2.176,-0.810667 -5.20533,-2.048001 -5.20533,-5.589337 0,-1.536001 0.85333,-3.242669 1.96266,-3.840003 0.72534,-0.384 1.62134,-0.512 2.60267,-0.512 2.34667,0 4.65067,1.834668 5.80267,4.480003 l 0.42667,-0.04267 c 0.17067,-1.536001 0.59733,-2.986668 0.98133,-4.266669 l -0.0853,-0.128001 c 0,0 -1.792,-1.920001 -6.784,-1.920001 -1.152,0 -2.43201,0.213334 -3.66934,0.725334 -2.51734,1.066667 -4.69334,3.541336 -4.69334,6.656005 0,4.480003 3.79734,6.570671 7.33868,8.064006 2.77333,1.152001 4.992,2.560002 4.992,6.186671 0,3.200003 -2.47467,4.992004 -4.992,4.992004 z"
         style="font-family:'Linux Biolinum O';-inkscape-font-specification:'Linux Biolinum O'"
         id="path97698" />
      <path
         d="M 280.59097,83.079498 V 62.51415 c 0,-1.493335 1.49334,-1.706668 3.584,-1.706668 9.21601,0 11.98935,7.082672 11.98935,13.653343 0,8.618673 -4.90667,10.325341 -10.92268,10.325341 -4.18133,0 -4.65067,-0.341333 -4.65067,-1.706668 z M 278.7563,59.058147 c -1.45066,0 -2.176,-0.128 -2.176,-0.128 l -0.0853,0.128 c 0.34133,2.432002 0.42667,5.333337 0.42667,8.53334 v 10.453341 c 0,3.200002 -0.0853,6.229338 -0.42667,8.53334 l 0.0427,0.128 c 0,0 0.72533,-0.128 2.21866,-0.128 3.02934,0 3.41334,0.08533 7.80801,0.08533 6.016,0 13.99468,-2.730669 13.99468,-13.226677 0,-7.936005 -6.57068,-14.506677 -14.76268,-14.506677 -2.73067,0 -4.30934,0.128 -7.04001,0.128 z"
         style="font-family:'Linux Biolinum O';-inkscape-font-specification:'Linux Biolinum O'"
         id="path97700" />
      <path
         d="m 320.14296,59.058147 h -11.09334 c -1.45066,0 -2.176,-0.128 -2.176,-0.128 l -0.0853,0.128 c 0.34133,2.432002 0.42667,5.333337 0.42667,8.53334 v 10.453341 c 0,3.200002 -0.0853,6.229338 -0.42667,8.53334 l 0.0427,0.128 c 0,0 0.72534,-0.128 2.21867,-0.128 1.45067,0 2.176,0.128 2.176,0.128 l 0.0853,-0.128 c -0.34134,-2.432002 -0.42667,-5.333338 -0.42667,-8.53334 v -4.992004 c 2.048,0 6.57067,0.128 9.51467,0.426667 l 0.128,-0.128 c -0.0853,-0.384 -0.128,-0.981334 -0.128,-1.365334 0,-0.384001 0.0427,-0.981334 0.128,-1.365335 l -0.128,-0.128 c -2.51733,0.213334 -4.48,0.426667 -9.51467,0.426667 v -3.328002 c 0,-0.725334 0.0427,-5.120004 0.34133,-6.144005 5.71734,0 11.60535,0.512001 11.60535,0.512001 l 0.0853,-0.170667 c -0.0427,-0.341334 -0.0853,-0.896001 -0.0853,-1.280001 0,-0.341334 0.0427,-0.853334 0.0853,-1.450668 l -0.0853,-0.128 c -0.68267,0.08533 -1.664,0.128 -2.68801,0.128 z"
         style="font-family:'Linux Biolinum O';-inkscape-font-specification:'Linux Biolinum O'"
         id="path97702" />
    </g>
    <g
       inkscape:label=""
       transform="matrix(1.1775687,0,0,1.1775687,-251.91271,-19.014859)"
       id="g17663"
       style="display:inline">
      <g
         id="g2549">
        <g
           style="fill:#000000;fill-opacity:1"
           id="g3001">
          <use
             xlink:href="#symbol7856"
             x="284.76001"
             y="93.917999"
             id="use1765"
             width="100%"
             height="100%" />
          <use
             xlink:href="#symbol3377"
             x="289.7413"
             y="93.917999"
             id="use8191"
             width="100%"
             height="100%" />
        </g>
        <g
           style="fill:#000000;fill-opacity:1"
           id="g8390">
          <use
             xlink:href="#symbol1194"
             x="298.04401"
             y="93.917999"
             id="use8455"
             width="100%"
             height="100%" />
        </g>
        <g
           style="fill:#000000;fill-opacity:1"
           id="g30">
          <use
             xlink:href="#symbol7856"
             x="303.99399"
             y="93.917999"
             id="use8144"
             width="100%"
             height="100%" />
        </g>
        <g
           style="fill:#000000;fill-opacity:1"
           id="g6">
          <use
             xlink:href="#symbol9033"
             x="311.7449"
             y="93.917999"
             id="use1393"
             width="100%"
             height="100%" />
        </g>
        <g
           style="fill:#000000;fill-opacity:1"
           id="g1735">
          <use
             xlink:href="#symbol5474"
             x="322.258"
             y="93.917999"
             id="use3257"
             width="100%"
             height="100%" />
        </g>
      </g>
    </g>
  </g>
  <g
     inkscape:groupmode="layer"
     id="layer5"
     inkscape:label="Layer 5"
     style="display:inline">
    <rect
       style="display:inline;fill:#d1deff;fill-opacity:1;stroke:#000000;stroke-width:0.545774;stroke-linejoin:round;stop-color:#000000"
       id="rect848-7-6"
       width="108.75267"
       height="44.007118"
       x="54.798203"
       y="117.32983"
       ry="1.9098612" />
    <rect
       style="display:inline;fill:#ffffff;fill-opacity:1;stroke:none;stroke-width:0.67927;stroke-linejoin:round;stroke-opacity:1;stop-color:#000000"
       id="rect17842-2"
       width="57.667091"
       height="18.79652"
       x="81.319687"
       y="139.17612"
       ry="1.1902347" />
    <rect
       style="display:inline;fill:#f3f3f3;fill-opacity:1;stroke:none;stroke-width:0.60944;stroke-linejoin:round;stop-color:#000000"
       id="rect75656-9-1-8"
       width="56.189301"
       height="16.124615"
       x="57.196293"
       y="120.20419"
       ry="1.9073321" />
    <g
       inkscape:label=""
       transform="matrix(1.3769123,0,0,1.3769123,87.094192,142.78445)"
       id="g3"
       style="display:inline">
      <g
         fill="#000000"
         fill-opacity="1"
         id="g2"
         transform="matrix(0.352778,0,0,0.352778,-49.3059,-7.645)">
        <g
           id="use5"
           transform="translate(136.49899,40.249001)">
          <path
             d="m 4.265625,-17.75 c 0,-0.390625 0,-0.828125 -0.5,-0.828125 -0.5,0 -0.5,0.53125 -0.5,0.90625 V 5.28125 c 0,0.390625 0,0.90625 0.5,0.90625 0.5,0 0.5,-0.4375 0.5,-0.828125 z m 4.828125,0.07813 c 0,-0.390625 0,-0.90625 -0.5,-0.90625 -0.484375,0 -0.484375,0.4375 -0.484375,0.828125 v 23.10937 c 0,0.390625 0,0.828125 0.484375,0.828125 0.5,0 0.5,-0.53125 0.5,-0.90625 z m 0,0"
             id="path10" />
        </g>
        <g
           id="use6"
           transform="translate(148.89255,40.249001)">
          <path
             d="m 19.328125,-16.375 c 0.04687,-0.07813 0.125,-0.25 0.125,-0.359375 0,-0.171875 -0.03125,-0.1875 -0.59375,-0.1875 H 1.765625 c -0.578125,0 -0.59375,0.01563 -0.59375,0.1875 0,0.109375 0.0625,0.28125 0.109375,0.359375 L 9.640625,0.34375 c 0.171875,0.328125 0.25,0.46875 0.671875,0.46875 0.421875,0 0.484375,-0.140625 0.671875,-0.46875 z m -15.09375,1.234375 H 17.84375 l -6.796875,13.625 z m 0,0"
             id="path11" />
        </g>
      </g>
      <g
         fill="#000000"
         fill-opacity="1"
         id="g7"
         transform="matrix(0.352778,0,0,0.352778,-49.3059,-7.645)">
        <g
           id="use7"
           transform="translate(169.549,40.249001)">
          <path
             d="m 11.046875,-9.96875 c 0.5,0 0.703125,0 0.703125,-0.46875 0,-0.25 -0.203125,-0.25 -0.640625,-0.25 H 9.09375 c 0.46875,-2.546875 0.8125,-4.3125 1.015625,-5.09375 0.15625,-0.59375 0.671875,-1.171875 1.3125,-1.171875 0.515625,0 1.046875,0.21875 1.296875,0.453125 -0.96875,0.09375 -1.265625,0.8125 -1.265625,1.234375 0,0.5 0.375,0.796875 0.84375,0.796875 0.484375,0 1.234375,-0.421875 1.234375,-1.359375 0,-1.046875 -1.046875,-1.625 -2.125,-1.625 -1.078125,0 -2.109375,0.796875 -2.609375,1.765625 -0.453125,0.875 -0.6875,1.765625 -1.265625,5 H 5.875 c -0.46875,0 -0.71875,0 -0.71875,0.453125 0,0.265625 0.140625,0.265625 0.640625,0.265625 h 1.59375 C 6.9375,-7.65625 5.921875,-2.0625 5.359375,0.59375 4.9375,2.75 4.5625,4.5625 3.328125,4.5625 c -0.078125,0 -0.796875,0 -1.25,-0.46875 C 3.34375,3.984375 3.34375,2.90625 3.34375,2.875 3.34375,2.375 2.96875,2.078125 2.5,2.078125 2,2.078125 1.265625,2.5 1.265625,3.4375 c 0,1.078125 1.09375,1.625 2.0625,1.625 2.515625,0 3.5625,-4.546875 3.828125,-5.78125 0.453125,-1.90625 1.671875,-8.5 1.796875,-9.25 z m 0,0"
             id="path12" />
        </g>
      </g>
      <g
         fill="#000000"
         fill-opacity="1"
         id="g8"
         transform="matrix(0.352778,0,0,0.352778,-49.3059,-7.645)">
        <g
           id="use8"
           transform="translate(184.158,40.249001)">
          <path
             d="m 4.265625,-17.75 c 0,-0.390625 0,-0.828125 -0.5,-0.828125 -0.5,0 -0.5,0.53125 -0.5,0.90625 V 5.28125 c 0,0.390625 0,0.90625 0.5,0.90625 0.5,0 0.5,-0.4375 0.5,-0.828125 z m 4.828125,0.07813 c 0,-0.390625 0,-0.90625 -0.5,-0.90625 -0.484375,0 -0.484375,0.4375 -0.484375,0.828125 v 23.10937 c 0,0.390625 0,0.828125 0.484375,0.828125 0.5,0 0.5,-0.53125 0.5,-0.90625 z m 0,0"
             id="path13" />
        </g>
      </g>
      <g
         fill="#000000"
         fill-opacity="1"
         id="g9"
         transform="matrix(0.352778,0,0,0.352778,-49.3059,-7.645)">
        <g
           id="use9"
           transform="translate(203.437,40.249001)">
          <path
             d="m 15.9375,-7.953125 c 0.375,0 0.734375,0 0.734375,-0.421875 0,-0.453125 -0.421875,-0.453125 -0.84375,-0.453125 H 1.984375 c -0.421875,0 -0.84375,0 -0.84375,0.453125 0,0.421875 0.375,0.421875 0.75,0.421875 z m -0.109375,4.40625 c 0.421875,0 0.84375,0 0.84375,-0.4375 0,-0.421875 -0.359375,-0.421875 -0.734375,-0.421875 H 1.890625 c -0.375,0 -0.75,0 -0.75,0.421875 0,0.4375 0.421875,0.4375 0.84375,0.4375 z m 0,0"
             id="path14" />
        </g>
      </g>
      <g
         fill="#000000"
         fill-opacity="1"
         id="g10"
         transform="matrix(0.352778,0,0,0.352778,-49.3059,-7.645)">
        <g
           id="use10"
           transform="translate(228.16957,40.249001)">
          <path
             d="m 6.59375,-15.828125 c 0,-0.53125 -0.03125,-0.546875 -0.375,-0.546875 -0.96875,1.15625 -2.421875,1.53125 -3.8125,1.578125 -0.078125,0 -0.203125,0 -0.21875,0.04687 -0.03125,0.0625 -0.03125,0.109375 -0.03125,0.625 0.765625,0 2.0625,-0.15625 3.046875,-0.75 v 13.0625 c 0,0.875 -0.046875,1.171875 -2.1875,1.171875 H 2.28125 V 0 c 1.1875,-0.03125 2.421875,-0.046875 3.609375,-0.046875 1.203125,0 2.4375,0.015625 3.625,0.046875 v -0.640625 h -0.75 c -2.125,0 -2.171875,-0.28125 -2.171875,-1.171875 z m 0,0"
             id="path15" />
        </g>
      </g>
    </g>
    <path
       style="font-size:42.6667px;font-family:'Linux Biolinum G';-inkscape-font-specification:'Linux Biolinum G';white-space:pre;display:inline;stroke-width:4;stroke-linecap:round;stroke-linejoin:round"
       d="m 246.17449,498.83317 q 0,4.91667 0.35416,6.14584 2.54167,0 5.54167,-0.125 3.00001,-0.125 4.75001,-0.25 l 1.72916,-0.125 0.0833,0.16666 q -0.0833,0.66667 -0.0833,1.41667 0,0.10417 0.0833,1.3125 l -0.0833,0.125 q -1.02083,-0.125 -2.5625,-0.125 h -11.64584 q -0.66667,0 -1.22917,0.0208 -0.54166,0.0417 -0.75,0.0625 l -0.22916,0.0417 -0.0417,-0.125 q 0.41667,-2.89583 0.41667,-8.54167 v -10.43751 q 0,-5.5 -0.41667,-8.54167 l 0.0833,-0.125 q 0.70834,0.125 2.16667,0.125 h 11.22918 q 1.54166,0 2.5625,-0.125 l 0.0833,0.125 q -0.0833,1.20833 -0.0833,1.625 0,0.4375 0.0833,1.10417 l -0.0833,0.16666 q -5.91667,-0.5 -11.60418,-0.5 -0.35416,1.25 -0.35416,6.14584 v 3.3125 q 4.47917,0 9.52084,-0.41666 l 0.125,0.125 q -0.125,0.5625 -0.125,1.375 0,0.79167 0.125,1.35417 l -0.125,0.125 q -4.18751,-0.41667 -9.52084,-0.41667 z m 22.70835,-0.29167 -6.85418,-9.60417 q 0.83334,0.125 2.47917,0.125 1.4375,0 2.3125,-0.125 l 1.27084,2.1875 1.58333,2.625 q 0.6875,1.125 1.45834,2.16667 1.04166,-1.375 2.70833,-3.91667 l 2.0625,-3.0625 q 0.54167,0.125 1.58334,0.125 1.27083,0 1.91667,-0.125 l -7.00001,8.60417 2.0625,3.08334 2.625,3.79167 q 1.10417,1.58333 2.27084,3.08333 -1.33333,-0.125 -2.4375,-0.125 -1.4375,0 -2.1875,0.125 l -1.9375,-3.16667 q -1.58334,-2.60417 -2.58334,-4 -0.95833,1.33333 -2.47917,3.79167 -1.5,2.4375 -2.125,3.375 -0.64583,-0.125 -1.875,-0.125 -0.91667,0 -1.54167,0.125 z m 24.54168,-0.77083 -3.625,0.97917 q -2.375,0.64583 -3.31251,1.6875 -0.91666,1.04166 -0.91666,2.58333 0,1.04167 0.89583,1.83334 0.89584,0.77083 2.27084,0.77083 1.70833,0 3.91667,-1.66667 0.60416,-0.45833 0.60416,-1.10416 z m 0,7.5625 h -0.16667 q -1.72917,1.45834 -2.89583,1.95834 -1.16667,0.5 -2.91667,0.5 -2.47917,0 -3.91667,-1.14583 -1.41667,-1.16667 -1.41667,-3.45834 0,-2.16667 1.89584,-3.8125 1.875,-1.625 5.1875,-2.37501 l 3.97917,-0.89583 q 0.29167,-0.10417 0.29167,-0.5 0,-1.375 -0.29167,-2.35417 -0.29167,-1 -0.6875,-1.5 -0.39583,-0.5 -1.02084,-0.79167 -0.625,-0.29166 -1.0625,-0.33333 -0.4375,-0.0625 -1.04166,-0.0625 -1.39584,0 -2.52084,0.97917 -1.125,0.97916 -2.16667,2.64583 l -0.5625,-0.0417 -0.70833,-2.85417 0.125,-0.16667 q 0.77083,-0.64583 1.39583,-1.08333 0.64584,-0.4375 2,-0.91667 1.37501,-0.47917 2.87501,-0.47917 1.0625,0 1.97916,0.16667 0.93751,0.14583 1.89584,0.625 0.95833,0.45833 1.625,1.20833 0.6875,0.72917 1.10417,2 0.4375,1.25001 0.4375,2.91667 0,0.14584 -0.0625,2.93751 -0.0625,2.79166 -0.0625,3.5 0,2.6875 0.70833,3.33333 0.375,0.3125 1.25,0.3125 0.52084,0 1.14584,-0.22916 l 0.33333,1.0625 q -1.22917,1.3125 -3.39583,1.3125 -1.20834,0 -2.10417,-0.625 -0.875,-0.625 -1.22917,-1.83334 z M 311.38287,490.354 q -2.20834,0 -3.75,2.0625 -1.54167,2.04167 -1.54167,5.4375 0,3.64584 1.5625,5.72917 1.5625,2.08334 3.97917,2.08334 1.29167,0 2.35417,-0.375 1.0625,-0.39584 2.20833,-1.41667 h 0.1875 l 0.8125,0.89583 q -2.375,3.02084 -6.29167,3.02084 -3.91667,0 -6.25,-2.625 -2.3125,-2.64584 -2.3125,-7.08334 0,-2.10417 0.79166,-3.91667 0.79167,-1.8125 2.08334,-3 1.29167,-1.1875 2.91667,-1.85417 1.625,-0.66667 3.29167,-0.66667 1.5625,0 3.10416,0.33334 1.56251,0.33333 2.56251,0.85416 l 0.10416,0.125 -1,3.50001 -0.54166,0.0417 q -1.83334,-3.14583 -4.27084,-3.14583 z m 11.68751,-1.29167 q 0,-1.35417 0.0833,-3.04167 0.0833,-1.6875 0.0833,-2.41667 l 0.0833,-0.125 q 0.625,-0.0833 1.08333,-0.22917 0.47917,-0.16666 1.02083,-0.4375 0.56251,-0.27083 0.87501,-0.39583 0.39583,0 0.39583,0.41667 -0.22917,3.02083 -0.22917,6.22917 h 2.02084 q 0.4375,0 0.97916,0 0.56251,-0.0208 1.14584,-0.0417 0.60417,-0.0417 0.85417,-0.0417 l 0.20833,0.3125 q -0.33333,0.83333 -0.5,1.75 -0.75,-0.0833 -3.08334,-0.0833 h -1.625 v 5.37501 q 0,1.4375 -0.0625,3.3125 -0.0625,1.875 -0.0625,2.35417 0,1.75 0.3125,2.5625 0.33334,0.8125 1.10417,0.9375 1.64583,0.25 3.35417,-0.33333 l 0.52083,1.0625 q -1.33333,0.85417 -2.45833,1.20833 -1.125,0.35417 -2.47917,0.35417 -1.58334,0 -2.6875,-1.0625 -1.08334,-1.0625 -1.08334,-3.02084 0,-0.47916 0.0625,-2.97917 0.0833,-2.5 0.0833,-3.9375 v -5.83334 q -2.0625,0 -3.04167,0.0833 l -0.20834,-0.3125 q 0.5625,-0.875 0.9375,-1.75 0.68751,0.0833 2.31251,0.0833 z m 31.43752,16.85418 q 2.02084,0 3.5,-1.33334 1.47917,-1.35416 1.47917,-3.64583 0,-1.3125 -0.375,-2.3125 -0.35417,-1 -1.10417,-1.70834 -0.72916,-0.72917 -1.54166,-1.1875 -0.79167,-0.47917 -1.95834,-0.97917 -1.29167,-0.5625 -2.14583,-1 -0.91667,-0.45833 -1.95834,-1.1875 -1.04167,-0.75 -1.70833,-1.54167 -0.64584,-0.79166 -1.10417,-1.91666 -0.4375,-1.12501 -0.4375,-2.41667 0,-2.22917 1.35417,-4.02084 1.35416,-1.79167 3.35417,-2.64583 1.72916,-0.72917 3.66667,-0.72917 1.39583,0 2.60416,0.20833 1.22917,0.1875 1.95834,0.47917 0.72917,0.27083 1.25,0.5625 0.54167,0.29167 0.75,0.5 l 0.20833,0.1875 0.0833,0.125 q -0.8125,2.77083 -0.97917,4.27084 l -0.41667,0.0417 q -0.875,-2 -2.47917,-3.22917 -1.58333,-1.25 -3.33333,-1.25 -1.625,0 -2.60417,0.5 -0.83333,0.45834 -1.39583,1.5625 -0.5625,1.10417 -0.5625,2.27084 0,1.02083 0.35416,1.875 0.35417,0.85417 0.83334,1.39584 0.47916,0.54166 1.27083,1.04166 0.79167,0.5 1.35417,0.75 0.5625,0.22917 1.39583,0.54167 1.16667,0.4375 2.125,0.91667 0.97917,0.45833 2.04167,1.22917 1.08334,0.75 1.79167,1.625 0.72917,0.85416 1.20833,2.08333 0.47917,1.22917 0.47917,2.66667 0,3.64584 -2.64583,5.89584 -2.64584,2.25 -6.66668,2.25 -1.39583,0 -2.70833,-0.20833 -1.3125,-0.1875 -2.20834,-0.45834 -0.875,-0.29166 -1.5625,-0.5625 -0.66666,-0.29167 -0.97916,-0.47917 l -0.3125,-0.20833 -0.0833,-0.125 q 0.0625,-0.20833 0.27084,-0.95833 l 0.3125,-1.16667 q 0.10416,-0.41667 0.22916,-1.0625 0.125,-0.66667 0.1875,-1.20834 l 0.41667,-0.0417 q 0.97917,1.89583 2.97917,3.25 2.02083,1.35417 3.8125,1.35417 z m 19.35418,-2.04167 q 0,0.75 0.29166,1.08333 0.29167,0.3125 1.25,0.47917 0.97917,0.14583 3.10417,0.14583 1.375,0 2.50001,-0.10416 1.14583,-0.125 2.29166,-0.4375 1.14584,-0.3125 2.04167,-0.8125 0.89584,-0.5 1.6875,-1.29167 0.79167,-0.79167 1.3125,-1.85417 0.52084,-1.08333 0.8125,-2.54167 0.29167,-1.47917 0.29167,-3.29167 0,-2.08333 -0.35417,-3.95833 -0.35416,-1.875 -1.22916,-3.66667 -0.875,-1.8125 -2.20834,-3.10417 -1.33333,-1.3125 -3.4375,-2.10417 -2.10417,-0.8125 -4.77084,-0.8125 -0.875,0 -1.45833,0.0625 -0.58334,0.0625 -1.10417,0.22917 -0.52083,0.16666 -0.77083,0.52083 -0.25,0.35417 -0.25,0.89583 z m -1.83334,-24.02085 q 1.35417,0 3.52084,-0.0625 2.16667,-0.0625 3.52083,-0.0625 3.02084,0 5.75001,1.16667 2.75,1.14583 4.70834,3.10416 1.97916,1.93751 3.14583,4.62501 1.16667,2.6875 1.16667,5.60417 0,2.1875 -0.47917,4.04167 -0.45833,1.83333 -1.25,3.1875 -0.77083,1.33334 -1.89583,2.39584 -1.10417,1.04166 -2.33334,1.70833 -1.22917,0.66667 -2.64583,1.10417 -1.39584,0.4375 -2.72917,0.625 -1.3125,0.16667 -2.66667,0.16667 -2.375,0 -4.43751,-0.0417 -2.04166,-0.0417 -3.375,-0.0417 -0.66667,0 -1.22917,0.0208 -0.54166,0.0417 -0.75,0.0625 l -0.22916,0.0417 -0.0417,-0.125 q 0.41667,-2.89583 0.41667,-8.54167 V 488.3956 q 0,-5.5 -0.41667,-8.54167 l 0.0833,-0.125 q 0.70834,0.125 2.16667,0.125 z m 41.39586,0 q 1.66667,0 2.68751,-0.125 l 0.0833,0.125 q -0.0833,1.20833 -0.0833,1.45833 0,0.60417 0.0833,1.27084 l -0.0833,0.16666 q -5.91668,-0.5 -11.60418,-0.5 -0.35417,1.25 -0.35417,6.14584 v 3.3125 q 4.47917,0 9.52084,-0.41666 l 0.125,0.125 q -0.125,0.5625 -0.125,1.375 0,0.79167 0.125,1.35417 l -0.125,0.125 q -4.1875,-0.41667 -9.52084,-0.41667 v 4.97917 q 0,5.33334 0.4375,8.54167 l -0.0833,0.125 q -0.72917,-0.125 -2.1875,-0.125 -0.66667,0 -1.22917,0.0208 -0.54167,0.0417 -0.75,0.0625 l -0.22917,0.0417 -0.0417,-0.125 q 0.41666,-2.89583 0.41666,-8.54167 v -10.43751 q 0,-5.5 -0.41666,-8.54167 l 0.0833,-0.125 q 0.70833,0.125 2.16667,0.125 z"
       id="text2"
       transform="matrix(0.26458333,0,0,0.26458333,-1.231635,-2.6392179)"
       aria-label="Exact SDF" />
  </g>
</svg>
