<?xml version="1.0" encoding="UTF-8" standalone="no"?>
<!-- Created with Inkscape (http://www.inkscape.org/) -->

<svg
   width="184.09485mm"
   height="128.26573mm"
   viewBox="0 0 184.09485 128.26573"
   version="1.1"
   id="svg5"
   sodipodi:docname="taxonomy.svg"
   inkscape:version="1.1.2 (0a00cf5339, 2022-02-04)"
   xmlns:inkscape="http://www.inkscape.org/namespaces/inkscape"
   xmlns:sodipodi="http://sodipodi.sourceforge.net/DTD/sodipodi-0.dtd"
   xmlns="http://www.w3.org/2000/svg"
   xmlns:svg="http://www.w3.org/2000/svg">
  <sodipodi:namedview
     id="namedview7"
     pagecolor="#ffffff"
     bordercolor="#666666"
     borderopacity="1.0"
     inkscape:pageshadow="2"
     inkscape:pageopacity="0.0"
     inkscape:pagecheckerboard="0"
     inkscape:document-units="mm"
     showgrid="false"
     inkscape:zoom="1.0633188"
     inkscape:cx="355.02054"
     inkscape:cy="194.67351"
     inkscape:window-width="1920"
     inkscape:window-height="1043"
     inkscape:window-x="1920"
     inkscape:window-y="0"
     inkscape:window-maximized="1"
     inkscape:current-layer="layer1" />
  <defs
     id="defs2">
    <rect
       x="150.11461"
       y="136.96544"
       width="532.84375"
       height="127.99453"
       id="rect14976" />
    <rect
       x="48.826832"
       y="47.785698"
       width="567.95142"
       height="83.481873"
       id="rect6022" />
    <rect
       x="48.826832"
       y="47.785698"
       width="567.95142"
       height="83.481873"
       id="rect6022-3" />
    <rect
       x="48.826832"
       y="47.785698"
       width="567.95142"
       height="83.481873"
       id="rect6022-3-5" />
    <rect
       x="48.826832"
       y="47.785698"
       width="567.95142"
       height="83.481873"
       id="rect6022-3-56" />
  </defs>
  <g
     inkscape:label="Layer 1"
     inkscape:groupmode="layer"
     id="layer1"
     transform="translate(-12.565988,-12.290521)">
    <rect
       style="fill:#638ef0;fill-opacity:1;stroke:#000000;stroke-width:0.705556;stroke-linejoin:round;stop-color:#000000"
       id="rect846"
       width="183.3893"
       height="127.56017"
       x="12.918766"
       y="12.643299"
       ry="2.6890397" />
    <rect
       style="fill:#f3f3f3;fill-opacity:1;stroke:none;stroke-width:0.705556;stroke-linejoin:round;stop-color:#000000"
       id="rect75656"
       width="75.210526"
       height="16.14599"
       x="17.935289"
       y="16.178724"
       ry="1.9098604" />
    <g
       aria-label="Signed implicit"
       transform="matrix(0.26458333,0,0,0.26458333,8.1016776,4.2149523)"
       id="text6020"
       style="font-size:42.6667px;line-height:1.25;font-family:'Liberation Serif';-inkscape-font-specification:'Liberation Serif';white-space:pre;shape-inside:url(#rect6022)">
      <path
         d="m 59.151513,85.1275 c -2.389335,0 -5.461338,-2.090668 -6.784005,-4.608004 l -0.426667,0.04267 c -0.170667,1.536001 -0.640001,3.114669 -0.981334,4.39467 l 0.08533,0.128 c 0,0 2.773336,1.920002 7.765339,1.920002 5.248004,0 9.301341,-3.200003 9.301341,-8.14934 0,-4.949337 -4.224004,-7.210672 -7.637339,-8.53334 -2.176002,-0.810667 -5.205338,-2.048001 -5.205338,-5.589337 0,-1.536001 0.853334,-3.242669 1.962668,-3.840003 0.725334,-0.384 1.621335,-0.512 2.602669,-0.512 2.346668,0 4.65067,1.834668 5.802671,4.480003 l 0.426667,-0.04267 c 0.170667,-1.536001 0.597334,-2.986668 0.981334,-4.266669 l -0.08533,-0.128001 c 0,0 -1.792002,-1.920001 -6.784005,-1.920001 -1.152001,0 -2.432002,0.213334 -3.669336,0.725334 -2.517336,1.066667 -4.693337,3.541336 -4.693337,6.656005 0,4.480003 3.797336,6.570671 7.338672,8.064006 2.773335,1.152001 4.992004,2.560002 4.992004,6.186671 0,3.200003 -2.474669,4.992004 -4.992004,4.992004 z"
         style="font-family:'Linux Biolinum O';-inkscape-font-specification:'Linux Biolinum O'"
         id="path97734" />
      <path
         d="m 73.828798,61.106149 c 0,1.152 1.024001,2.176001 2.176002,2.176001 1.152001,0 2.176002,-1.024001 2.176002,-2.176001 0,-1.152001 -1.024001,-2.176002 -2.176002,-2.176002 -1.152001,0 -2.176002,1.024001 -2.176002,2.176002 z m 0.426667,15.445344 v 2.346669 c 0,3.200002 -0.08533,5.376004 -0.384,7.680006 l 0.08533,0.128 c 0.512001,-0.08533 1.493335,-0.128 2.005335,-0.128 0.512001,0 1.493335,0.04267 2.005335,0.128 l 0.08533,-0.128 c -0.341334,-2.389336 -0.384001,-4.437337 -0.384001,-7.680006 v -3.029336 c 0,-3.200002 0.08533,-4.736003 0.384001,-7.338672 0,-0.384 -0.08533,-0.426667 -0.384001,-0.426667 -0.981334,0.128 -2.816002,0.128 -3.712003,0.04267 l -0.08533,0.128 c 0.256,1.834668 0.384,5.077337 0.384,8.277339 z"
         style="font-family:'Linux Biolinum O';-inkscape-font-specification:'Linux Biolinum O'"
         id="path97736" />
      <path
         d="m 85.818068,91.015504 c 0,-1.408001 1.280001,-2.986669 2.773336,-3.797336 1.237334,0 3.200002,-0.128 3.797336,-0.128 2.048001,0 3.328002,0.04267 4.52267,0.725334 1.237334,0.725334 1.664001,1.962668 1.664001,3.072002 0,2.602669 -3.498669,3.968003 -7.168005,3.968003 -2.773336,0 -5.589338,-0.938667 -5.589338,-3.840003 z M 98.148744,74.418159 c 0,-2.944003 -1.152001,-4.309337 -2.176001,-4.949337 1.280001,0.08533 2.688002,0.256 4.480007,0.426667 l 0.128,-0.128001 c -0.0853,-0.384 -0.128,-0.725333 -0.128,-1.109334 0,-0.384 0.0427,-0.725334 0.128,-1.109334 l -0.128,-0.128 c -2.048006,0.213333 -3.584007,0.64 -6.741342,0.810667 -0.768001,-0.256 -1.706668,-0.384 -2.602669,-0.384 -3.370669,0 -7.253339,2.261335 -7.253339,6.485338 0,3.200003 1.834668,4.65067 3.029336,5.333337 -1.237334,0.853334 -2.730669,2.090669 -2.730669,3.541336 0,1.749335 1.024001,3.285336 3.285336,3.712003 -1.152001,0.469334 -2.517335,1.280001 -3.584003,2.133335 -0.554667,0.810667 -0.981334,2.048002 -0.981334,2.816002 0,3.370669 3.669336,4.821337 8.192006,4.821337 6.656005,0 10.624008,-2.773335 10.624008,-6.784005 0,-1.877335 -0.59733,-3.200002 -1.792001,-4.224003 -1.621335,-1.365334 -4.52267,-1.408001 -6.016005,-1.408001 -0.725333,0 -2.432001,0.08533 -3.413335,0.213333 -0.597334,0.04267 -1.024001,0.08533 -1.237335,0.08533 -1.194667,0 -2.474668,-0.170667 -2.474668,-2.005335 0,-0.853334 0.213333,-1.578668 1.152001,-2.389335 0.554667,0.298667 1.834668,0.597334 3.157335,0.597334 4.437337,0 7.082672,-2.986669 7.082672,-6.357338 z m -3.328002,0.04267 c 0,2.602669 -1.066668,4.608004 -3.62667,4.608004 -3.072002,0 -4.010669,-2.005335 -4.010669,-4.949337 0,-2.816002 1.280001,-4.65067 3.754669,-4.65067 2.773336,0 3.88267,1.962668 3.88267,4.992003 z"
         style="font-family:'Linux Biolinum O';-inkscape-font-specification:'Linux Biolinum O'"
         id="path97738" />
      <path
         d="m 122.42604,78.898162 c 0,-1.365334 0.0853,-2.944002 0.0853,-4.309337 0,-4.437336 -1.45066,-6.741338 -5.29067,-6.741338 -1.62133,0 -4.65067,0.64 -7.38134,3.840003 l -0.0853,-0.128 v -3.114669 c -0.0427,-0.298667 -0.0853,-0.426667 -0.256,-0.426667 -0.98133,0.213333 -2.51734,0.256 -3.456,0.128 l -0.0853,0.128 c 0.29867,1.877335 0.384,5.077337 0.384,8.277339 v 2.346669 c 0,3.200002 -0.0427,5.376004 -0.384,7.680006 l 0.0853,0.128 c 0.512,-0.08533 1.49333,-0.128 2.00533,-0.128 0.512,0 1.49334,0.04267 2.00534,0.128 l 0.0853,-0.128 c -0.34133,-2.432002 -0.384,-4.437337 -0.384,-7.680006 v -4.992004 c 2.176,-2.560002 4.65067,-3.498669 6.18667,-3.498669 2.176,0 3.072,0.853334 3.072,4.309336 v 4.181337 c 0,3.200002 -0.0853,5.418671 -0.384,7.680006 l 0.0853,0.128 c 0.512,-0.08533 1.49333,-0.128 2.00533,-0.128 0.512,0 1.49334,0.04267 2.00534,0.128 l 0.0853,-0.128 c -0.34133,-2.432002 -0.384,-4.437337 -0.384,-7.680006 z"
         style="font-family:'Linux Biolinum O';-inkscape-font-specification:'Linux Biolinum O'"
         id="path97740" />
      <path
         d="m 131.13003,74.930159 c 0.72533,-4.437337 3.49867,-5.376004 4.864,-5.376004 1.664,0 3.58401,1.578668 3.58401,4.77867 0,0.384 -0.17067,0.597334 -0.59734,0.597334 z m 11.39201,7.210672 c -1.49334,1.621335 -3.49867,2.346668 -5.84534,2.346668 -1.49333,0 -3.49867,-0.554667 -4.65067,-2.432001 -0.768,-1.194668 -1.024,-2.901336 -1.024,-5.418671 h 11.60534 c 0.46933,0 0.768,-0.256 0.768,-0.725334 0,-3.584003 -1.74933,-8.064006 -7.38134,-8.064006 -4.39467,0 -8.74667,3.541336 -8.74667,9.813341 0,2.432001 0.46933,4.821337 1.92,6.528004 1.45067,1.792002 3.88267,2.816003 6.78401,2.816003 3.072,0 5.80267,-1.578668 7.424,-3.797337 z"
         style="font-family:'Linux Biolinum O';-inkscape-font-specification:'Linux Biolinum O'"
         id="path97742" />
      <path
         d="m 160.82601,81.756831 c -1.57867,2.005335 -3.54134,3.029335 -5.248,3.029335 -2.30401,0 -4.26667,-2.304001 -4.26667,-7.637339 0,-6.400005 3.37067,-7.594672 5.46133,-7.594672 2.00534,0 3.02934,0.853334 4.05334,2.474668 z m 0,2.346668 h 0.0853 l 0.21334,2.474669 c 0,0.08533 0.128,0.128 0.384,0.128 0.55466,-0.04267 0.85333,-0.128 1.45067,-0.128 0.55466,0 1.36533,0.04267 1.92,0.128 l 0.0853,-0.128 c -0.34133,-1.834668 -0.72533,-4.992004 -0.72533,-8.192006 V 65.244818 c 0,-3.157335 0.17066,-5.376004 0.384,-8.021339 0,-0.298667 -0.128,-0.426667 -0.384,-0.426667 -1.10934,0.426667 -2.00534,0.725334 -3.71201,0.853334 l -0.0853,0.128 c 0.29867,1.834668 0.384,4.992004 0.384,8.234673 v 2.773335 c -0.98133,-0.554667 -2.73067,-0.938667 -3.584,-0.938667 -5.58934,0 -9.64268,3.840003 -9.64268,9.642674 0,5.248004 3.11467,9.514674 7.72268,9.514674 2.048,0 3.968,-0.896001 5.504,-2.901336 z"
         style="font-family:'Linux Biolinum O';-inkscape-font-specification:'Linux Biolinum O'"
         id="path97744" />
      <path
         d="m 182.11655,61.106149 c 0,1.152 1.024,2.176001 2.176,2.176001 1.152,0 2.17601,-1.024001 2.17601,-2.176001 0,-1.152001 -1.02401,-2.176002 -2.17601,-2.176002 -1.152,0 -2.176,1.024001 -2.176,2.176002 z m 0.42667,15.445344 v 2.346669 c 0,3.200002 -0.0853,5.376004 -0.384,7.680006 l 0.0853,0.128 c 0.512,-0.08533 1.49334,-0.128 2.00534,-0.128 0.512,0 1.49333,0.04267 2.00533,0.128 l 0.0853,-0.128 c -0.34134,-2.389336 -0.384,-4.437337 -0.384,-7.680006 v -3.029336 c 0,-3.200002 0.0853,-4.736003 0.384,-7.338672 0,-0.384 -0.0853,-0.426667 -0.384,-0.426667 -0.98134,0.128 -2.81601,0.128 -3.71201,0.04267 l -0.0853,0.128 c 0.256,1.834668 0.384,5.077337 0.384,8.277339 z"
         style="font-family:'Linux Biolinum O';-inkscape-font-specification:'Linux Biolinum O'"
         id="path97746" />
      <path
         d="m 196.7085,71.55949 v -3.114669 c 0,-0.298667 -0.0853,-0.426667 -0.256,-0.426667 -0.98134,0.213333 -2.51734,0.256 -3.456,0.128 l -0.0853,0.128 c 0.29867,1.877335 0.384,5.077337 0.384,8.277339 v 2.346669 c 0,3.200002 -0.0427,5.376004 -0.384,7.680006 l 0.0853,0.128 c 0.512,-0.08533 1.49333,-0.128 2.00533,-0.128 0.512,0 1.49334,0.04267 2.00534,0.128 l 0.0853,-0.128 c -0.34133,-2.432002 -0.384,-4.437337 -0.384,-7.680006 v -5.162671 c 2.00533,-2.048001 4.39467,-3.328002 5.888,-3.328002 1.62134,0 2.81601,0.938667 2.81601,3.797336 v 4.693337 c 0,3.200002 -0.0427,5.376004 -0.38401,7.680006 l 0.0853,0.128 c 0.512,-0.08533 1.49333,-0.128 2.00533,-0.128 0.512,0 1.49334,0.04267 2.00534,0.128 l 0.0853,-0.128 c -0.34133,-2.432002 -0.384,-4.437337 -0.384,-7.680006 v -4.309337 c 0,-0.597333 0,-1.109334 -0.0427,-1.621334 2.04801,-2.261335 3.75467,-2.560002 5.41868,-2.560002 2.304,0 3.41333,0.938667 3.41333,3.797336 v 4.693337 c 0,3.200002 -0.0427,5.376004 -0.384,7.680006 l 0.0853,0.128 c 0.512,-0.08533 1.49334,-0.128 2.00534,-0.128 0.512,0 1.49333,0.04267 2.00533,0.128 l 0.0853,-0.128 c -0.34134,-2.432002 -0.384,-4.437337 -0.384,-7.680006 v -4.26667 c 0,-3.797336 -0.68267,-6.784005 -5.29067,-6.784005 -2.30401,0 -4.77867,0.810667 -7.21068,3.370669 -0.384,-2.048001 -2.13333,-3.370669 -4.52267,-3.370669 -2.64533,0 -5.16267,1.706668 -7.168,3.840003 z"
         style="font-family:'Linux Biolinum O';-inkscape-font-specification:'Linux Biolinum O'"
         id="path97748" />
      <path
         d="m 231.14049,74.034158 c 0.93867,-2.261335 3.456,-4.224003 5.12,-4.224003 2.90134,0 4.39467,2.645335 4.39467,7.466672 0,3.49867 -0.98133,8.02134 -5.54667,8.02134 -0.68266,0 -2.47467,-0.170667 -3.968,-1.920002 z m 0,-2.474668 v -3.114669 c 0,-0.298667 -0.0853,-0.426667 -0.256,-0.426667 -0.98133,0.213333 -2.51734,0.256 -3.456,0.128 l -0.0853,0.128 c 0.29867,1.877335 0.384,5.077337 0.384,8.277339 v 11.392009 c 0,3.200002 -0.0853,6.272005 -0.384,8.53334 l 0.0853,0.128 c 0.512,-0.08533 1.49333,-0.128 2.00533,-0.128 0.512,0 1.49334,0.04267 2.00534,0.128 l 0.0853,-0.128 c -0.34133,-2.432002 -0.384,-5.290671 -0.384,-8.53334 v -1.877335 c 1.10933,0.597334 2.688,0.938668 4.224,0.938668 5.63201,0 9.04534,-4.26667 9.04534,-10.282675 0,-4.52267 -2.64533,-8.874673 -7.424,-8.874673 -1.664,0 -3.79734,0.853334 -5.76001,3.840003 z"
         style="font-family:'Linux Biolinum O';-inkscape-font-specification:'Linux Biolinum O'"
         id="path97750" />
      <path
         d="m 250.38312,78.044828 c 0,3.200002 -0.0853,6.272005 -0.384,8.53334 l 0.0853,0.128 c 0.512,-0.08533 1.49333,-0.128 2.00533,-0.128 0.512,0 1.49334,0.04267 2.00534,0.128 l 0.0853,-0.128 c -0.34133,-2.432002 -0.384,-5.290671 -0.384,-8.53334 v -12.80001 c 0,-3.200002 0.17067,-5.29067 0.384,-8.021339 0,-0.298667 -0.128,-0.426667 -0.384,-0.426667 -1.10933,0.426667 -2.00533,0.725334 -3.712,0.853334 l -0.0853,0.128 c 0.29867,1.834668 0.384,4.992004 0.384,8.234673 z"
         style="font-family:'Linux Biolinum O';-inkscape-font-specification:'Linux Biolinum O'"
         id="path97752" />
      <path
         d="m 260.70841,61.106149 c 0,1.152 1.024,2.176001 2.176,2.176001 1.152,0 2.176,-1.024001 2.176,-2.176001 0,-1.152001 -1.024,-2.176002 -2.176,-2.176002 -1.152,0 -2.176,1.024001 -2.176,2.176002 z m 0.42667,15.445344 v 2.346669 c 0,3.200002 -0.0853,5.376004 -0.384,7.680006 l 0.0853,0.128 c 0.512,-0.08533 1.49333,-0.128 2.00534,-0.128 0.512,0 1.49333,0.04267 2.00533,0.128 l 0.0853,-0.128 c -0.34133,-2.389336 -0.384,-4.437337 -0.384,-7.680006 v -3.029336 c 0,-3.200002 0.0853,-4.736003 0.384,-7.338672 0,-0.384 -0.0853,-0.426667 -0.384,-0.426667 -0.98133,0.128 -2.816,0.128 -3.712,0.04267 l -0.0853,0.128 c 0.256,1.834668 0.384,5.077337 0.384,8.277339 z"
         style="font-family:'Linux Biolinum O';-inkscape-font-specification:'Linux Biolinum O'"
         id="path97754" />
      <path
         d="m 279.05503,69.554155 c 1.62133,0 3.11467,1.237334 4.26667,3.157336 l 0.55466,-0.04267 0.98134,-3.498669 -0.0853,-0.128 c -1.32266,-0.682668 -3.54133,-1.194668 -5.67467,-1.194668 -4.43733,0 -9.088,3.626669 -9.088,9.42934 0,5.973338 3.37067,9.728008 8.576,9.728008 2.56,0 4.56534,-0.853334 6.27201,-3.029336 l -0.81067,-0.896001 h -0.17067 c -1.62133,1.450668 -2.98667,1.792002 -4.56533,1.792002 -3.11467,0 -5.54667,-2.816002 -5.54667,-7.808006 0,-4.693337 2.47466,-7.509339 5.29067,-7.509339 z"
         style="font-family:'Linux Biolinum O';-inkscape-font-specification:'Linux Biolinum O'"
         id="path97756" />
      <path
         d="m 290.10566,61.106149 c 0,1.152 1.024,2.176001 2.176,2.176001 1.152,0 2.176,-1.024001 2.176,-2.176001 0,-1.152001 -1.024,-2.176002 -2.176,-2.176002 -1.152,0 -2.176,1.024001 -2.176,2.176002 z m 0.42666,15.445344 v 2.346669 c 0,3.200002 -0.0853,5.376004 -0.384,7.680006 l 0.0853,0.128 c 0.512,-0.08533 1.49333,-0.128 2.00533,-0.128 0.512,0 1.49334,0.04267 2.00534,0.128 l 0.0853,-0.128 c -0.34133,-2.389336 -0.384,-4.437337 -0.384,-7.680006 v -3.029336 c 0,-3.200002 0.0853,-4.736003 0.384,-7.338672 0,-0.384 -0.0853,-0.426667 -0.384,-0.426667 -0.98133,0.128 -2.816,0.128 -3.712,0.04267 l -0.0853,0.128 c 0.256,1.834668 0.384,5.077337 0.384,8.277339 z"
         style="font-family:'Linux Biolinum O';-inkscape-font-specification:'Linux Biolinum O'"
         id="path97758" />
      <path
         d="m 301.83892,68.274154 c -0.896,0 -1.792,0 -2.304,-0.08533 -0.29867,0.725333 -0.55467,1.109334 -0.93867,1.749334 l 0.21333,0.298667 c 0.72534,-0.04267 2.04801,-0.04267 3.02934,-0.08533 v 5.845337 c 0,2.560002 -0.128,5.632005 -0.128,6.912006 0,2.773335 1.792,4.096003 3.75467,4.096003 1.792,0 3.15733,-0.426667 4.94934,-1.578668 l -0.55467,-1.024001 c -1.28,0.426667 -2.26134,0.469334 -3.328,0.298667 -1.024,-0.128 -1.408,-1.152001 -1.408,-3.498669 0,-1.280001 0.128,-3.114669 0.128,-5.674671 v -5.376004 h 1.62133 c 1.024,0 2.47467,0.04267 3.072,0.08533 0.128,-0.682667 0.256,-1.109334 0.512,-1.749335 l -0.21333,-0.298666 c -0.768,0.04267 -2.00534,0.08533 -2.98667,0.08533 h -2.00533 c 0,-3.157336 0,-3.754669 0.21333,-6.229338 0,-0.298667 -0.128,-0.426667 -0.384,-0.426667 -1.10934,0.426667 -1.62134,0.896001 -2.98667,1.066667 l -0.0853,0.128001 c -0.0853,1.493334 -0.17067,2.986668 -0.17067,5.461337 z"
         style="font-family:'Linux Biolinum O';-inkscape-font-specification:'Linux Biolinum O'"
         id="path97760" />
    </g>
  </g>
  <g
     inkscape:groupmode="layer"
     id="layer2"
     inkscape:label="Layer 2"
     style="display:inline">
    <rect
       style="fill:#89aaf5;fill-opacity:1;stroke:#000000;stroke-width:0.720468;stroke-linejoin:round;stop-color:#000000"
       id="rect848"
       width="150.50772"
       height="98.463661"
       x="39.725281"
       y="36.246231"
       ry="2.7472346"
       transform="translate(-12.565988,-12.290521)" />
    <rect
       style="fill:#f3f3f3;fill-opacity:1;stroke:none;stroke-width:0.770849;stroke-linejoin:round;stop-color:#000000"
       id="rect75656-9"
       width="90.139359"
       height="16.080696"
       x="44.21862"
       y="40.812721"
       ry="1.902137"
       transform="translate(-12.565988,-12.290521)" />
    <g
       aria-label="Lower-bound SDF"
       transform="matrix(0.26458333,0,0,0.26458333,22.050885,17.228915)"
       id="text6020-6"
       style="font-size:42.6667px;line-height:1.25;font-family:'Liberation Serif';-inkscape-font-specification:'Liberation Serif';white-space:pre;shape-inside:url(#rect6022-3)">
      <path
         d="m 56.975511,67.591487 c 0,-3.200003 0.08533,-6.272005 0.426667,-8.53334 l -0.04267,-0.128 c -0.512001,0.08533 -1.706668,0.128 -2.218669,0.128 -0.512,0 -1.664001,-0.04267 -2.176001,-0.128 l -0.08533,0.128 c 0.341334,2.432002 0.426667,5.333337 0.426667,8.53334 v 10.453341 c 0,3.200002 -0.08533,6.229338 -0.426667,8.53334 l 0.04267,0.128 c 0,0 0.768,-0.128 2.218668,-0.128 h 11.648009 c 0.896001,0 1.877335,0.04267 2.560002,0.128 l 0.08533,-0.128 c -0.04267,-0.597334 -0.08533,-1.450668 -0.08533,-1.877335 0,-0.426667 0.04267,-1.152001 0.08533,-1.493335 l -0.08533,-0.170666 c 0,0 -6.314672,0.938667 -12.032009,0.938667 -0.298667,-1.024001 -0.341334,-5.205337 -0.341334,-5.930671 z"
         style="font-family:'Linux Biolinum O';-inkscape-font-specification:'Linux Biolinum O'"
         id="path97705" />
      <path
         d="m 72.42083,77.831494 c 0,5.120004 3.370669,9.173341 9.04534,9.173341 5.632005,0 9.04534,-3.968003 9.04534,-9.557341 0,-5.802671 -3.114669,-9.600007 -8.874673,-9.600007 -5.589337,0 -9.216007,3.925336 -9.216007,9.984007 z m 8.91734,-8.277339 c 4.52267,0 5.418671,3.498669 5.418671,8.66134 0,4.096003 -2.048002,7.082672 -4.90667,7.082672 -4.52267,0 -5.674671,-4.906671 -5.674671,-8.192006 0,-3.712003 1.152001,-7.552006 5.16267,-7.552006 z"
         style="font-family:'Linux Biolinum O';-inkscape-font-specification:'Linux Biolinum O'"
         id="path97707" />
      <path
         d="m 100.58069,86.748834 c 0.42667,-0.128 0.98133,-0.128 1.408,-0.128 0.42667,0 1.152,0 1.536,0.128 1.152,-3.242669 2.38934,-6.784005 3.75467,-10.112007 1.28,3.328002 2.64534,6.784005 3.88267,10.069341 0.42667,-0.128 0.68267,-0.128 1.10933,-0.128 0.42667,0 1.19467,0 1.57867,0.128 2.09067,-5.034671 5.50401,-13.226677 7.93601,-18.560014 -0.384,0.128 -1.408,0.128 -1.83467,0.128 -0.42667,0 -1.06667,0 -1.45067,-0.128 -1.57867,5.03467 -3.49867,10.496008 -5.29067,14.592011 h -0.34133 c -1.74934,-4.693337 -3.07201,-10.069341 -4.05334,-14.592011 -0.55467,0.128 -1.536,0.128 -2.13333,0.128 -0.68267,0 -1.79201,0 -2.47467,-0.128 0.55466,1.749335 1.23733,3.626669 1.96267,5.589337 -1.10934,3.200003 -2.30401,6.400005 -3.54134,9.04534 h -0.256 c -2.13334,-4.864003 -3.541337,-9.68534 -5.077338,-14.59201 -0.554667,0.128 -1.536001,0.128 -2.133335,0.128 -0.682667,0 -1.792001,0 -2.474668,-0.128 2.858669,6.272004 5.504004,12.330675 7.893341,18.560013 z"
         style="font-family:'Linux Biolinum O';-inkscape-font-specification:'Linux Biolinum O'"
         id="path97709" />
      <path
         d="m 127.63124,74.930159 c 0.72534,-4.437337 3.49867,-5.376004 4.86401,-5.376004 1.664,0 3.584,1.578668 3.584,4.77867 0,0.384 -0.17067,0.597334 -0.59734,0.597334 z m 11.39201,7.210672 c -1.49333,1.621335 -3.49867,2.346668 -5.84534,2.346668 -1.49333,0 -3.49867,-0.554667 -4.65067,-2.432001 -0.768,-1.194668 -1.024,-2.901336 -1.024,-5.418671 h 11.60534 c 0.46934,0 0.768,-0.256 0.768,-0.725334 0,-3.584003 -1.74933,-8.064006 -7.38133,-8.064006 -4.39467,0 -8.74668,3.541336 -8.74668,9.813341 0,2.432001 0.46934,4.821337 1.92,6.528004 1.45067,1.792002 3.88267,2.816003 6.78401,2.816003 3.072,0 5.80267,-1.578668 7.424,-3.797337 z"
         style="font-family:'Linux Biolinum O';-inkscape-font-specification:'Linux Biolinum O'"
         id="path97711" />
      <path
         d="m 148.75122,72.32749 v -3.882669 c 0,-0.298667 -0.0853,-0.426667 -0.256,-0.426667 -0.98133,0.213333 -2.51733,0.256 -3.456,0.128 l -0.0853,0.128 c 0.29866,1.877335 0.384,5.077337 0.384,8.277339 v 2.346669 c 0,3.200002 -0.0853,5.418671 -0.384,7.680006 l 0.0853,0.128 c 0.512,-0.08533 1.49334,-0.128 2.00534,-0.128 0.512,0 1.49333,0.04267 2.00533,0.128 l 0.0853,-0.128 c -0.34133,-2.432002 -0.384,-4.437337 -0.384,-7.680006 v -2.218668 c 0,-1.792002 0.512,-2.816003 1.45067,-4.224004 0.59734,-0.938667 1.57867,-1.493334 2.38934,-1.493334 0.85333,0 1.664,0.08533 2.21866,0.597334 l 0.34134,-0.08533 0.85333,-3.157335 -0.17066,-0.170667 c -0.72534,-0.213334 -0.768,-0.298667 -1.53601,-0.298667 -2.304,0 -3.54133,1.322668 -5.41867,4.565337 z"
         style="font-family:'Linux Biolinum O';-inkscape-font-specification:'Linux Biolinum O'"
         id="path97713" />
      <path
         d="m 168.46321,76.508827 c 0.55467,0 1.152,-1.066668 1.152,-1.536001 0,-0.384001 -0.17066,-0.768001 -0.59733,-0.768001 h -9.77067 c -0.512,0 -1.06667,0.896001 -1.06667,1.578668 0,0.384 0.256,0.725334 0.64,0.725334 z"
         style="font-family:'Linux Biolinum O';-inkscape-font-specification:'Linux Biolinum O'"
         id="path97715" />
      <path
         d="M 177.89248,83.122165 V 72.07149 c 1.664,-1.706668 2.73067,-2.517335 4.48,-2.517335 2.60267,0 4.90668,2.176002 4.90668,7.466672 0,5.290671 -1.57867,8.27734 -5.63201,8.27734 -1.32267,0 -2.90133,-1.109335 -3.75467,-2.176002 z m 0,-17.877347 c 0,-3.157335 0.0427,-5.376004 0.256,-8.021339 0,-0.298667 -0.128,-0.426667 -0.384,-0.426667 -1.10933,0.426667 -2.00533,0.725334 -3.712,0.853334 l -0.0853,0.128 c 0.29866,1.834668 0.512,4.992004 0.512,8.234673 v 17.45068 c 0,1.664001 -0.0427,2.304001 -0.21334,3.200002 0.256,0.256 0.72534,0.341334 1.19467,0.341334 0.46933,-0.512001 0.93867,-1.237335 1.408,-2.090669 1.23734,1.066668 3.2,2.090669 5.03467,2.090669 4.352,0 9.17334,-3.072003 9.17334,-10.325341 0,-5.205338 -3.712,-8.832007 -7.85067,-8.832007 -2.048,0 -3.88267,0.554667 -5.33334,2.133335 z"
         style="font-family:'Linux Biolinum O';-inkscape-font-specification:'Linux Biolinum O'"
         id="path97717" />
      <path
         d="m 194.53241,77.831494 c 0,5.120004 3.37067,9.173341 9.04534,9.173341 5.632,0 9.04534,-3.968003 9.04534,-9.557341 0,-5.802671 -3.11467,-9.600007 -8.87468,-9.600007 -5.58933,0 -9.216,3.925336 -9.216,9.984007 z m 8.91734,-8.277339 c 4.52267,0 5.41867,3.498669 5.41867,8.66134 0,4.096003 -2.048,7.082672 -4.90667,7.082672 -4.52267,0 -5.67467,-4.906671 -5.67467,-8.192006 0,-3.712003 1.152,-7.552006 5.16267,-7.552006 z"
         style="font-family:'Linux Biolinum O';-inkscape-font-specification:'Linux Biolinum O'"
         id="path97719" />
      <path
         d="m 229.81768,82.652831 0.17067,0.128 0.21333,3.797337 c 0,0.08533 0.0427,0.128 0.17067,0.128 0.55467,-0.04267 1.06667,-0.128 1.664,-0.128 0.55467,0 1.36534,0.04267 1.92,0.128 l 0.0853,-0.128 c -0.34134,-1.834668 -0.72534,-4.992004 -0.72534,-8.192006 V 75.95416 c 0,-3.200003 0.0427,-5.418671 0.384,-7.680006 l -0.0853,-0.128 c -0.512,0.08533 -1.49333,0.128 -2.00533,0.128 -0.51201,0 -1.49334,-0.04267 -2.00534,-0.128 l -0.0853,0.128 c 0.29866,2.474668 0.384,4.437337 0.384,7.680006 v 4.181336 c -1.32267,2.218668 -3.75467,4.480003 -5.84534,4.480003 -1.49333,0 -2.85867,-0.469333 -2.85867,-4.437336 V 75.95416 c 0,-3.200003 0.0427,-5.418671 0.384,-7.680006 l -0.0853,-0.128 c -0.512,0.08533 -1.49334,0.128 -2.00534,0.128 -0.512,0 -1.49333,-0.04267 -2.00533,-0.128 l -0.0853,0.128 c 0.34134,2.432002 0.384,4.437337 0.384,7.680006 v 5.120004 c 0,2.944002 1.36534,5.930671 5.58934,5.930671 2.64534,0 5.03467,-2.176002 6.44267,-4.352004 z"
         style="font-family:'Linux Biolinum O';-inkscape-font-specification:'Linux Biolinum O'"
         id="path97721" />
      <path
         d="m 256.78299,78.898162 c 0,-1.365334 0.0853,-2.944002 0.0853,-4.309337 0,-4.437336 -1.45067,-6.741338 -5.29067,-6.741338 -1.62134,0 -4.65068,0.64 -7.38134,3.840003 l -0.0853,-0.128 v -3.114669 c -0.0427,-0.298667 -0.0853,-0.426667 -0.256,-0.426667 -0.98133,0.213333 -2.51733,0.256 -3.456,0.128 l -0.0853,0.128 c 0.29866,1.877335 0.384,5.077337 0.384,8.277339 v 2.346669 c 0,3.200002 -0.0427,5.376004 -0.384,7.680006 l 0.0853,0.128 c 0.512,-0.08533 1.49333,-0.128 2.00533,-0.128 0.51201,0 1.49334,0.04267 2.00534,0.128 l 0.0853,-0.128 c -0.34133,-2.432002 -0.384,-4.437337 -0.384,-7.680006 v -4.992004 c 2.176,-2.560002 4.65067,-3.498669 6.18667,-3.498669 2.17601,0 3.07201,0.853334 3.07201,4.309336 v 4.181337 c 0,3.200002 -0.0853,5.418671 -0.384,7.680006 l 0.0853,0.128 c 0.512,-0.08533 1.49333,-0.128 2.00533,-0.128 0.512,0 1.49334,0.04267 2.00534,0.128 l 0.0853,-0.128 c -0.34133,-2.432002 -0.384,-4.437337 -0.384,-7.680006 z"
         style="font-family:'Linux Biolinum O';-inkscape-font-specification:'Linux Biolinum O'"
         id="path97723" />
      <path
         d="m 275.55632,81.756831 c -1.57867,2.005335 -3.54134,3.029335 -5.24801,3.029335 -2.304,0 -4.26666,-2.304001 -4.26666,-7.637339 0,-6.400005 3.37066,-7.594672 5.46133,-7.594672 2.00534,0 3.02934,0.853334 4.05334,2.474668 z m 0,2.346668 h 0.0853 l 0.21334,2.474669 c 0,0.08533 0.128,0.128 0.384,0.128 0.55466,-0.04267 0.85333,-0.128 1.45066,-0.128 0.55467,0 1.36534,0.04267 1.92001,0.128 l 0.0853,-0.128 C 279.3536,84.7435 278.96959,81.586164 278.96959,78.386162 V 65.244818 c 0,-3.157335 0.17067,-5.376004 0.38401,-8.021339 0,-0.298667 -0.12801,-0.426667 -0.38401,-0.426667 -1.10933,0.426667 -2.00533,0.725334 -3.712,0.853334 l -0.0853,0.128 c 0.29867,1.834668 0.384,4.992004 0.384,8.234673 v 2.773335 c -0.98134,-0.554667 -2.73067,-0.938667 -3.584,-0.938667 -5.58934,0 -9.64268,3.840003 -9.64268,9.642674 0,5.248004 3.11467,9.514674 7.72267,9.514674 2.04801,0 3.96801,-0.896001 5.50401,-2.901336 z"
         style="font-family:'Linux Biolinum O';-inkscape-font-specification:'Linux Biolinum O'"
         id="path97725" />
      <path
         d="m 303.75887,85.1275 c -2.38933,0 -5.46133,-2.090668 -6.784,-4.608004 l -0.42667,0.04267 c -0.17067,1.536001 -0.64,3.114669 -0.98133,4.39467 l 0.0853,0.128 c 0,0 2.77334,1.920002 7.76534,1.920002 5.248,0 9.30134,-3.200003 9.30134,-8.14934 0,-4.949337 -4.224,-7.210672 -7.63734,-8.53334 -2.176,-0.810667 -5.20534,-2.048001 -5.20534,-5.589337 0,-1.536001 0.85334,-3.242669 1.96267,-3.840003 0.72534,-0.384 1.62134,-0.512 2.60267,-0.512 2.34667,0 4.65067,1.834668 5.80267,4.480003 l 0.42667,-0.04267 c 0.17067,-1.536001 0.59733,-2.986668 0.98133,-4.266669 l -0.0853,-0.128001 c 0,0 -1.792,-1.920001 -6.78401,-1.920001 -1.152,0 -2.432,0.213334 -3.66933,0.725334 -2.51734,1.066667 -4.69334,3.541336 -4.69334,6.656005 0,4.480003 3.79734,6.570671 7.33867,8.064006 2.77334,1.152001 4.99201,2.560002 4.99201,6.186671 0,3.200003 -2.47467,4.992004 -4.99201,4.992004 z"
         style="font-family:'Linux Biolinum O';-inkscape-font-specification:'Linux Biolinum O'"
         id="path97727" />
      <path
         d="M 323.1295,83.079498 V 62.51415 c 0,-1.493335 1.49333,-1.706668 3.584,-1.706668 9.21601,0 11.98934,7.082672 11.98934,13.653343 0,8.618673 -4.90667,10.325341 -10.92267,10.325341 -4.18134,0 -4.65067,-0.341333 -4.65067,-1.706668 z m -1.83467,-24.021351 c -1.45067,0 -2.176,-0.128 -2.176,-0.128 l -0.0853,0.128 c 0.34133,2.432002 0.42666,5.333337 0.42666,8.53334 v 10.453341 c 0,3.200002 -0.0853,6.229338 -0.42666,8.53334 l 0.0427,0.128 c 0,0 0.72534,-0.128 2.21867,-0.128 3.02934,0 3.41334,0.08533 7.80801,0.08533 6.016,0 13.99467,-2.730669 13.99467,-13.226677 0,-7.936005 -6.57067,-14.506677 -14.76267,-14.506677 -2.73067,0 -4.30934,0.128 -7.04001,0.128 z"
         style="font-family:'Linux Biolinum O';-inkscape-font-specification:'Linux Biolinum O'"
         id="path97729" />
      <path
         d="m 362.68148,59.058147 h -11.09334 c -1.45067,0 -2.17601,-0.128 -2.17601,-0.128 l -0.0853,0.128 c 0.34133,2.432002 0.42667,5.333337 0.42667,8.53334 v 10.453341 c 0,3.200002 -0.0853,6.229338 -0.42667,8.53334 l 0.0427,0.128 c 0,0 0.72533,-0.128 2.21867,-0.128 1.45066,0 2.176,0.128 2.176,0.128 l 0.0853,-0.128 c -0.34133,-2.432002 -0.42667,-5.333338 -0.42667,-8.53334 v -4.992004 c 2.04801,0 6.57068,0.128 9.51468,0.426667 l 0.128,-0.128 c -0.0853,-0.384 -0.128,-0.981334 -0.128,-1.365334 0,-0.384001 0.0427,-0.981334 0.128,-1.365335 l -0.128,-0.128 c -2.51734,0.213334 -4.48001,0.426667 -9.51468,0.426667 v -3.328002 c 0,-0.725334 0.0427,-5.120004 0.34134,-6.144005 5.71734,0 11.60534,0.512001 11.60534,0.512001 l 0.0853,-0.170667 c -0.0427,-0.341334 -0.0853,-0.896001 -0.0853,-1.280001 0,-0.341334 0.0427,-0.853334 0.0853,-1.450668 l -0.0853,-0.128 c -0.68267,0.08533 -1.664,0.128 -2.688,0.128 z"
         style="font-family:'Linux Biolinum O';-inkscape-font-specification:'Linux Biolinum O'"
         id="path97731" />
    </g>
  </g>
  <g
     inkscape:groupmode="layer"
     id="layer3"
     inkscape:label="Layer 3"
     style="display:none">
    <rect
       style="fill:#b6c8fc;fill-opacity:1;stroke:#000000;stroke-width:0.545774;stroke-linejoin:round;stop-color:#000000"
       id="rect848-7"
       width="124.23611"
       height="68.451347"
       x="59.158993"
       y="60.02422"
       ry="1.9098612"
       transform="translate(-12.565988,-12.290521)" />
    <rect
       style="fill:#f3f3f3;fill-opacity:1;stroke:none;stroke-width:0.72693;stroke-linejoin:round;stop-color:#000000"
       id="rect75656-9-1"
       width="79.942261"
       height="16.124615"
       x="63.038162"
       y="63.83762"
       ry="1.9073321"
       transform="translate(-12.565988,-12.290521)" />
    <g
       aria-label="1-Lipschitz SDF"
       transform="matrix(0.26458333,0,0,0.26458333,41.098166,39.964654)"
       id="text6020-6-3"
       style="font-size:42.6667px;line-height:1.25;font-family:'Liberation Serif';-inkscape-font-specification:'Liberation Serif';white-space:pre;shape-inside:url(#rect6022-3-5)">
      <path
         d="M 62.735516,78.514162 V 67.67682 c 0,-4.608003 0.256,-6.314671 0.341333,-6.912005 0,-0.213333 -0.128,-0.213333 -0.298667,-0.213333 -2.773335,0.896 -6.016004,2.560001 -9.344007,3.584002 l 0.256,1.237334 c 1.920002,-0.213333 4.01067,-0.682667 4.864004,-0.682667 0.768001,0 0.768001,1.706668 0.768001,3.242669 v 10.581342 c 0,3.328002 -0.04267,5.632004 -0.341334,8.064006 l 0.04267,0.128 c 0,0 1.194667,-0.128 1.962668,-0.128 0.853334,0 2.048001,0.128 2.048001,0.128 l 0.08533,-0.128 c -0.298667,-2.560002 -0.384,-4.693337 -0.384,-8.064006 z"
         style="font-family:'Linux Biolinum O';-inkscape-font-specification:'Linux Biolinum O'"
         id="path97676" />
      <path
         d="m 80.356786,76.508827 c 0.554667,0 1.152001,-1.066668 1.152001,-1.536001 0,-0.384001 -0.170667,-0.768001 -0.597334,-0.768001 H 71.14078 c -0.512001,0 -1.066668,0.896001 -1.066668,1.578668 0,0.384 0.256,0.725334 0.640001,0.725334 z"
         style="font-family:'Linux Biolinum O';-inkscape-font-specification:'Linux Biolinum O'"
         id="path97678" />
      <path
         d="m 91.023386,67.591487 c 0,-3.200003 0.08533,-6.272005 0.426667,-8.53334 l -0.04267,-0.128 c -0.512,0.08533 -1.706668,0.128 -2.218668,0.128 -0.512001,0 -1.664002,-0.04267 -2.176002,-0.128 l -0.08533,0.128 c 0.341333,2.432002 0.426667,5.333337 0.426667,8.53334 v 10.453341 c 0,3.200002 -0.08533,6.229338 -0.426667,8.53334 l 0.04267,0.128 c 0,0 0.768001,-0.128 2.218669,-0.128 h 11.648008 c 0.896,0 1.87733,0.04267 2.56,0.128 l 0.0853,-0.128 c -0.0427,-0.597334 -0.0853,-1.450668 -0.0853,-1.877335 0,-0.426667 0.0427,-1.152001 0.0853,-1.493335 l -0.0853,-0.170666 c 0,0 -6.314669,0.938667 -12.032007,0.938667 -0.298667,-1.024001 -0.341333,-5.205337 -0.341333,-5.930671 z"
         style="font-family:'Linux Biolinum O';-inkscape-font-specification:'Linux Biolinum O'"
         id="path97680" />
      <path
         d="m 108.26071,61.106149 c 0,1.152 1.024,2.176001 2.176,2.176001 1.152,0 2.176,-1.024001 2.176,-2.176001 0,-1.152001 -1.024,-2.176002 -2.176,-2.176002 -1.152,0 -2.176,1.024001 -2.176,2.176002 z m 0.42667,15.445344 v 2.346669 c 0,3.200002 -0.0853,5.376004 -0.384,7.680006 l 0.0853,0.128 c 0.512,-0.08533 1.49333,-0.128 2.00533,-0.128 0.51201,0 1.49334,0.04267 2.00534,0.128 l 0.0853,-0.128 c -0.34133,-2.389336 -0.384,-4.437337 -0.384,-7.680006 v -3.029336 c 0,-3.200002 0.0853,-4.736003 0.384,-7.338672 0,-0.384 -0.0853,-0.426667 -0.384,-0.426667 -0.98133,0.128 -2.816,0.128 -3.712,0.04267 l -0.0853,0.128 c 0.256,1.834668 0.384,5.077337 0.384,8.277339 z"
         style="font-family:'Linux Biolinum O';-inkscape-font-specification:'Linux Biolinum O'"
         id="path97682" />
      <path
         d="m 122.85265,74.034158 c 0.93867,-2.261335 3.456,-4.224003 5.12,-4.224003 2.90134,0 4.39467,2.645335 4.39467,7.466672 0,3.49867 -0.98133,8.02134 -5.54667,8.02134 -0.68267,0 -2.47467,-0.170667 -3.968,-1.920002 z m 0,-2.474668 v -3.114669 c 0,-0.298667 -0.0853,-0.426667 -0.256,-0.426667 -0.98134,0.213333 -2.51734,0.256 -3.456,0.128 l -0.0853,0.128 c 0.29867,1.877335 0.384,5.077337 0.384,8.277339 v 11.392009 c 0,3.200002 -0.0853,6.272005 -0.384,8.53334 l 0.0853,0.128 c 0.512,-0.08533 1.49333,-0.128 2.00533,-0.128 0.512,0 1.49333,0.04267 2.00534,0.128 l 0.0853,-0.128 c -0.34133,-2.432002 -0.384,-5.290671 -0.384,-8.53334 v -1.877335 c 1.10933,0.597334 2.688,0.938668 4.224,0.938668 5.63201,0 9.04534,-4.26667 9.04534,-10.282675 0,-4.52267 -2.64533,-8.874673 -7.424,-8.874673 -1.66401,0 -3.79734,0.853334 -5.76001,3.840003 z"
         style="font-family:'Linux Biolinum O';-inkscape-font-specification:'Linux Biolinum O'"
         id="path97684" />
      <path
         d="m 140.38861,82.268831 -0.72534,3.584003 c 2.432,0.853334 4.82134,1.152001 6.44267,1.152001 5.88801,0 7.25334,-3.49867 7.25334,-5.845338 0,-3.498669 -2.77333,-4.864004 -5.80267,-5.589338 -1.62133,-0.384 -3.968,-1.194667 -3.968,-3.328002 0,-1.749335 1.408,-2.688002 3.24267,-2.688002 2.21867,0 3.584,1.749335 4.56534,2.901335 l 0.59733,-0.04267 0.85333,-3.157336 -0.0853,-0.128 c -1.23733,-0.640001 -3.584,-1.280001 -5.76,-1.280001 -3.15734,0 -6.44268,1.664001 -6.44268,5.205337 0,3.413336 2.51734,4.565337 5.12001,5.248004 2.47467,0.682667 4.30933,1.365334 4.30933,3.456003 0,2.261335 -1.664,3.541336 -3.92533,3.541336 -2.048,0 -3.84001,-1.408001 -5.03467,-3.072003 z"
         style="font-family:'Linux Biolinum O';-inkscape-font-specification:'Linux Biolinum O'"
         id="path97686" />
      <path
         d="m 165.81796,69.554155 c 1.62133,0 3.11467,1.237334 4.26667,3.157336 l 0.55466,-0.04267 0.98134,-3.498669 -0.0853,-0.128 c -1.32267,-0.682668 -3.54134,-1.194668 -5.67468,-1.194668 -4.43733,0 -9.088,3.626669 -9.088,9.42934 0,5.973338 3.37067,9.728008 8.576,9.728008 2.56001,0 4.56534,-0.853334 6.27201,-3.029336 l -0.81067,-0.896001 h -0.17067 c -1.62133,1.450668 -2.98666,1.792002 -4.56533,1.792002 -3.11467,0 -5.54667,-2.816002 -5.54667,-7.808006 0,-4.693337 2.47467,-7.509339 5.29067,-7.509339 z"
         style="font-family:'Linux Biolinum O';-inkscape-font-specification:'Linux Biolinum O'"
         id="path97688" />
      <path
         d="m 180.70859,71.55949 v -6.357338 c 0,-3.157336 0.17067,-5.333338 0.384,-7.978673 0,-0.298667 -0.128,-0.426667 -0.384,-0.426667 -1.10933,0.426667 -2.00533,0.725334 -3.712,0.853334 l -0.0853,0.128 c 0.29866,1.834668 0.384,5.034671 0.384,8.27734 v 12.842676 c 0,3.200002 -0.0853,5.29067 -0.384,7.680006 l 0.0853,0.128 c 0.512,-0.08533 1.49333,-0.128 2.00533,-0.128 0.512,0 1.49334,0.04267 2.00534,0.128 l 0.0853,-0.128 c -0.34133,-2.432002 -0.384,-4.437337 -0.384,-7.680006 v -4.992004 c 2.176,-2.560002 4.65067,-3.498669 6.18667,-3.498669 2.17601,0 3.07201,0.853334 3.07201,4.309336 v 4.181337 c 0,3.200002 -0.0427,5.418671 -0.384,7.680006 l 0.0853,0.128 c 0.512,-0.08533 1.49333,-0.128 2.00533,-0.128 0.512,0 1.49334,0.04267 2.00534,0.128 l 0.0853,-0.128 c -0.34133,-2.432002 -0.384,-4.437337 -0.384,-7.680006 0,-1.365334 0.0853,-2.944002 0.0853,-4.309337 0,-4.437336 -1.45067,-6.741338 -5.29068,-6.741338 -1.62133,0 -4.65067,0.64 -7.38133,3.840003 z"
         style="font-family:'Linux Biolinum O';-inkscape-font-specification:'Linux Biolinum O'"
         id="path97690" />
      <path
         d="m 200.29259,61.106149 c 0,1.152 1.024,2.176001 2.176,2.176001 1.15201,0 2.17601,-1.024001 2.17601,-2.176001 0,-1.152001 -1.024,-2.176002 -2.17601,-2.176002 -1.152,0 -2.176,1.024001 -2.176,2.176002 z m 0.42667,15.445344 v 2.346669 c 0,3.200002 -0.0853,5.376004 -0.384,7.680006 l 0.0853,0.128 c 0.512,-0.08533 1.49334,-0.128 2.00534,-0.128 0.512,0 1.49333,0.04267 2.00533,0.128 l 0.0853,-0.128 c -0.34134,-2.389336 -0.384,-4.437337 -0.384,-7.680006 v -3.029336 c 0,-3.200002 0.0853,-4.736003 0.384,-7.338672 0,-0.384 -0.0853,-0.426667 -0.384,-0.426667 -0.98134,0.128 -2.81601,0.128 -3.71201,0.04267 l -0.0853,0.128 c 0.256,1.834668 0.384,5.077337 0.384,8.277339 z"
         style="font-family:'Linux Biolinum O';-inkscape-font-specification:'Linux Biolinum O'"
         id="path97692" />
      <path
         d="m 212.02587,68.274154 c -0.896,0 -1.792,0 -2.304,-0.08533 -0.29867,0.725333 -0.55467,1.109334 -0.93867,1.749334 l 0.21333,0.298667 c 0.72534,-0.04267 2.04801,-0.04267 3.02934,-0.08533 v 5.845337 c 0,2.560002 -0.128,5.632005 -0.128,6.912006 0,2.773335 1.792,4.096003 3.75467,4.096003 1.792,0 3.15734,-0.426667 4.94934,-1.578668 l -0.55467,-1.024001 c -1.28,0.426667 -2.26134,0.469334 -3.328,0.298667 -1.024,-0.128 -1.408,-1.152001 -1.408,-3.498669 0,-1.280001 0.128,-3.114669 0.128,-5.674671 v -5.376004 h 1.62133 c 1.024,0 2.47467,0.04267 3.072,0.08533 0.128,-0.682667 0.256,-1.109334 0.512,-1.749335 l -0.21333,-0.298666 c -0.768,0.04267 -2.00533,0.08533 -2.98667,0.08533 h -2.00533 c 0,-3.157336 0,-3.754669 0.21333,-6.229338 0,-0.298667 -0.128,-0.426667 -0.384,-0.426667 -1.10933,0.426667 -1.62133,0.896001 -2.98667,1.066667 l -0.0853,0.128001 c -0.0853,1.493334 -0.17067,2.986668 -0.17067,5.461337 z"
         style="font-family:'Linux Biolinum O';-inkscape-font-specification:'Linux Biolinum O'"
         id="path97694" />
      <path
         d="m 228.23913,84.658166 9.81334,-14.592011 c 0.72533,-1.066667 1.024,-1.493334 1.28,-1.792001 0,-0.170667 -0.0853,-0.256 -0.256,-0.256 -0.21333,0 -2.176,0.256 -3.41333,0.256 h -8.70401 c -0.85333,0 -1.74934,-0.04267 -2.38934,-0.128 l -0.0853,0.128 c 0.0427,0.554667 0.0853,0.768001 0.0853,1.152001 0,0.384 -0.0427,0.768 -0.0853,1.109334 l 0.0853,0.128 c 0,0 4.82134,-0.384 9.72801,-0.426667 l -10.02667,14.976011 c -0.34134,0.512001 -0.59734,0.938668 -0.93867,1.322668 l 0.128,0.170667 c 0,0 2.21867,-0.128 3.456,-0.128 h 9.64268 c 0.85333,0 1.74933,0.04267 2.38933,0.128 l 0.0853,-0.128 c -0.0427,-0.554667 -0.0853,-0.768001 -0.0853,-1.152001 0,-0.384001 0.0427,-0.768001 0.0853,-1.109334 l -0.0853,-0.128001 c 0,0 -5.504,0.469334 -10.70934,0.469334 z"
         style="font-family:'Linux Biolinum O';-inkscape-font-specification:'Linux Biolinum O'"
         id="path97696" />
      <path
         d="m 261.22035,85.1275 c -2.38934,0 -5.46134,-2.090668 -6.78401,-4.608004 l -0.42667,0.04267 c -0.17066,1.536001 -0.64,3.114669 -0.98133,4.39467 l 0.0853,0.128 c 0,0 2.77334,1.920002 7.76534,1.920002 5.24801,0 9.30134,-3.200003 9.30134,-8.14934 0,-4.949337 -4.224,-7.210672 -7.63734,-8.53334 -2.176,-0.810667 -5.20533,-2.048001 -5.20533,-5.589337 0,-1.536001 0.85333,-3.242669 1.96266,-3.840003 0.72534,-0.384 1.62134,-0.512 2.60267,-0.512 2.34667,0 4.65067,1.834668 5.80267,4.480003 l 0.42667,-0.04267 c 0.17067,-1.536001 0.59733,-2.986668 0.98133,-4.266669 l -0.0853,-0.128001 c 0,0 -1.792,-1.920001 -6.784,-1.920001 -1.152,0 -2.43201,0.213334 -3.66934,0.725334 -2.51734,1.066667 -4.69334,3.541336 -4.69334,6.656005 0,4.480003 3.79734,6.570671 7.33868,8.064006 2.77333,1.152001 4.992,2.560002 4.992,6.186671 0,3.200003 -2.47467,4.992004 -4.992,4.992004 z"
         style="font-family:'Linux Biolinum O';-inkscape-font-specification:'Linux Biolinum O'"
         id="path97698" />
      <path
         d="M 280.59097,83.079498 V 62.51415 c 0,-1.493335 1.49334,-1.706668 3.584,-1.706668 9.21601,0 11.98935,7.082672 11.98935,13.653343 0,8.618673 -4.90667,10.325341 -10.92268,10.325341 -4.18133,0 -4.65067,-0.341333 -4.65067,-1.706668 z M 278.7563,59.058147 c -1.45066,0 -2.176,-0.128 -2.176,-0.128 l -0.0853,0.128 c 0.34133,2.432002 0.42667,5.333337 0.42667,8.53334 v 10.453341 c 0,3.200002 -0.0853,6.229338 -0.42667,8.53334 l 0.0427,0.128 c 0,0 0.72533,-0.128 2.21866,-0.128 3.02934,0 3.41334,0.08533 7.80801,0.08533 6.016,0 13.99468,-2.730669 13.99468,-13.226677 0,-7.936005 -6.57068,-14.506677 -14.76268,-14.506677 -2.73067,0 -4.30934,0.128 -7.04001,0.128 z"
         style="font-family:'Linux Biolinum O';-inkscape-font-specification:'Linux Biolinum O'"
         id="path97700" />
      <path
         d="m 320.14296,59.058147 h -11.09334 c -1.45066,0 -2.176,-0.128 -2.176,-0.128 l -0.0853,0.128 c 0.34133,2.432002 0.42667,5.333337 0.42667,8.53334 v 10.453341 c 0,3.200002 -0.0853,6.229338 -0.42667,8.53334 l 0.0427,0.128 c 0,0 0.72534,-0.128 2.21867,-0.128 1.45067,0 2.176,0.128 2.176,0.128 l 0.0853,-0.128 c -0.34134,-2.432002 -0.42667,-5.333338 -0.42667,-8.53334 v -4.992004 c 2.048,0 6.57067,0.128 9.51467,0.426667 l 0.128,-0.128 c -0.0853,-0.384 -0.128,-0.981334 -0.128,-1.365334 0,-0.384001 0.0427,-0.981334 0.128,-1.365335 l -0.128,-0.128 c -2.51733,0.213334 -4.48,0.426667 -9.51467,0.426667 v -3.328002 c 0,-0.725334 0.0427,-5.120004 0.34133,-6.144005 5.71734,0 11.60535,0.512001 11.60535,0.512001 l 0.0853,-0.170667 c -0.0427,-0.341334 -0.0853,-0.896001 -0.0853,-1.280001 0,-0.341334 0.0427,-0.853334 0.0853,-1.450668 l -0.0853,-0.128 c -0.68267,0.08533 -1.664,0.128 -2.68801,0.128 z"
         style="font-family:'Linux Biolinum O';-inkscape-font-specification:'Linux Biolinum O'"
         id="path97702" />
    </g>
  </g>
  <g
     inkscape:groupmode="layer"
     id="layer4"
     inkscape:label="Layer 4"
     style="display:none">
    <rect
       style="fill:#dee7fc;fill-opacity:1;stroke:#000000;stroke-width:0.705556;stroke-linejoin:round;stop-color:#000000"
       id="rect36774"
       width="94.084946"
       height="37.048084"
       x="83.726524"
       y="84.86692"
       ry="1.9098604"
       transform="translate(-12.565988,-12.290521)" />
    <rect
       style="fill:#f3f3f3;fill-opacity:1;stroke:none;stroke-width:0.590348;stroke-linejoin:round;stop-color:#000000"
       id="rect75656-9-1-2"
       width="52.281139"
       height="16.261196"
       x="89.624359"
       y="90.60878"
       ry="1.9234879"
       transform="translate(-12.565988,-12.290521)" />
    <g
       aria-label="Exact SDF"
       transform="matrix(0.26458333,0,0,0.26458333,66.49774,66.964245)"
       id="text6020-6-2"
       style="font-size:42.6667px;line-height:1.25;font-family:'Liberation Serif';-inkscape-font-specification:'Liberation Serif';white-space:pre;shape-inside:url(#rect6022-3-56)">
      <path
         d="m 56.932845,78.044828 v -4.992004 c 2.048001,0 6.570671,0.128 9.514673,0.426667 l 0.128,-0.128 c -0.08533,-0.384 -0.128,-0.981334 -0.128,-1.365334 0,-0.384001 0.04267,-0.981334 0.128,-1.365335 l -0.128,-0.128 c -2.517335,0.213334 -4.480003,0.426667 -9.514673,0.426667 v -3.328002 c 0,-0.725334 0.04267,-5.120004 0.341333,-6.144005 5.717338,0 11.605342,0.512001 11.605342,0.512001 l 0.08533,-0.170667 c -0.04267,-0.341334 -0.08533,-0.725334 -0.08533,-1.109334 0,-0.341334 0.04267,-1.024001 0.08533,-1.621335 l -0.08533,-0.128 c -0.682667,0.08533 -1.664001,0.128 -2.560002,0.128 H 55.098177 c -1.450668,0 -2.176002,-0.128 -2.176002,-0.128 l -0.08533,0.128 c 0.341333,2.432002 0.426667,5.333337 0.426667,8.53334 v 10.453341 c 0,3.200002 -0.08533,6.229338 -0.426667,8.53334 l 0.04267,0.128 c 0,0 0.725334,-0.128 2.218669,-0.128 h 11.648008 c 0.896001,0 1.877335,0.04267 2.560002,0.128 l 0.08533,-0.128 c -0.04267,-0.597334 -0.08533,-0.896001 -0.08533,-1.322668 0,-0.426667 0.04267,-1.066668 0.08533,-1.408001 l -0.08533,-0.170667 c 0,0 -6.314671,0.512 -12.032009,0.512 -0.298667,-1.024 -0.341333,-5.41867 -0.341333,-6.144004 z"
         style="font-family:'Linux Biolinum O';-inkscape-font-specification:'Linux Biolinum O'"
         id="path97659" />
      <path
         d="m 79.631451,77.788828 -6.656005,8.91734 c 0.384001,-0.04267 1.109335,-0.128 1.536002,-0.128 0.426667,0 1.408001,0.08533 1.877334,0.128 1.621335,-2.432002 2.901336,-4.778671 4.608004,-7.168006 1.706668,2.389335 2.944002,4.736004 4.52267,7.168006 0.597334,-0.08533 1.493334,-0.128 2.176001,-0.128 0.640001,0 1.749335,0.08533 2.432002,0.128 -2.602668,-3.328003 -4.693337,-6.613339 -6.997338,-9.941341 l 7.040005,-8.618673 c -0.554667,0.128 -1.493335,0.128 -1.920002,0.128 -0.469333,0 -1.152,0 -1.578667,-0.128 -1.664002,2.389335 -2.986669,4.65067 -4.778671,6.997338 -1.706668,-2.346668 -2.901335,-4.608003 -4.309336,-6.997338 -0.768001,0.128 -1.578668,0.128 -2.304002,0.128 -0.682667,0 -1.792001,0 -2.474668,-0.128 z"
         style="font-family:'Linux Biolinum O';-inkscape-font-specification:'Linux Biolinum O'"
         id="path97661" />
      <path
         d="m 104.4208,76.97816 -0.17067,5.077338 c 0,0.554667 -0.256,0.853334 -0.59733,1.109334 -1.19467,0.896 -2.64534,1.664001 -3.925338,1.664001 -1.920001,0 -3.157336,-1.280001 -3.157336,-2.602669 0,-1.920001 0.896001,-3.370669 4.224004,-4.266669 z m 0,7.552006 c 0.46933,1.706668 1.74933,2.474669 3.328,2.474669 1.06667,0 2.38934,-0.256001 3.37067,-1.322668 l -0.29867,-1.024001 c -0.46933,0.170667 -0.85333,0.213334 -1.152,0.213334 -0.42666,0 -0.98133,-0.08533 -1.28,-0.341334 -0.42667,-0.384 -0.68267,-1.408001 -0.68267,-3.328002 0,-1.237335 0.128,-5.973338 0.128,-6.442672 0,-5.760004 -3.79733,-6.912005 -7.04,-6.912005 -3.24267,0 -5.205338,1.578668 -6.272005,2.474668 l -0.128,0.170667 0.725334,2.858669 0.554667,0.04267 c 1.194667,-1.920002 2.645335,-3.62667 4.693334,-3.62667 1.536,0 4.09601,0.213334 4.09601,5.034671 0,0.298667 -0.17067,0.469334 -0.29867,0.512 l -3.968,0.896001 c -4.352008,0.981334 -7.082676,3.285336 -7.082676,6.186671 0,3.157336 2.176001,4.608004 5.333337,4.608004 2.346669,0 3.541339,-0.554667 5.802669,-2.474669 z"
         style="font-family:'Linux Biolinum O';-inkscape-font-specification:'Linux Biolinum O'"
         id="path97663" />
      <path
         d="m 122.38344,69.554155 c 1.62133,0 3.11467,1.237334 4.26667,3.157336 l 0.55466,-0.04267 0.98134,-3.498669 -0.0853,-0.128 c -1.32266,-0.682668 -3.54133,-1.194668 -5.67467,-1.194668 -4.43733,0 -9.088,3.626669 -9.088,9.42934 0,5.973338 3.37067,9.728008 8.576,9.728008 2.56001,0 4.56534,-0.853334 6.27201,-3.029336 l -0.81067,-0.896001 h -0.17067 c -1.62133,1.450668 -2.98666,1.792002 -4.56533,1.792002 -3.11467,0 -5.54667,-2.816002 -5.54667,-7.808006 0,-4.693337 2.47467,-7.509339 5.29067,-7.509339 z"
         style="font-family:'Linux Biolinum O';-inkscape-font-specification:'Linux Biolinum O'"
         id="path97665" />
      <path
         d="m 134.07407,68.274154 c -0.89601,0 -1.79201,0 -2.30401,-0.08533 -0.29866,0.725333 -0.55466,1.109334 -0.93866,1.749334 l 0.21333,0.298667 c 0.72533,-0.04267 2.048,-0.04267 3.02934,-0.08533 v 5.845337 c 0,2.560002 -0.128,5.632005 -0.128,6.912006 0,2.773335 1.792,4.096003 3.75466,4.096003 1.79201,0 3.15734,-0.426667 4.94934,-1.578668 l -0.55467,-1.024001 c -1.28,0.426667 -2.26133,0.469334 -3.328,0.298667 -1.024,-0.128 -1.408,-1.152001 -1.408,-3.498669 0,-1.280001 0.128,-3.114669 0.128,-5.674671 v -5.376004 h 1.62134 c 1.024,0 2.47466,0.04267 3.072,0.08533 0.128,-0.682667 0.256,-1.109334 0.512,-1.749335 l -0.21333,-0.298666 c -0.76801,0.04267 -2.00534,0.08533 -2.98667,0.08533 h -2.00534 c 0,-3.157336 0,-3.754669 0.21333,-6.229338 0,-0.298667 -0.128,-0.426667 -0.384,-0.426667 -1.10933,0.426667 -1.62133,0.896001 -2.98666,1.066667 l -0.0853,0.128001 c -0.0853,1.493334 -0.17066,2.986668 -0.17066,5.461337 z"
         style="font-family:'Linux Biolinum O';-inkscape-font-specification:'Linux Biolinum O'"
         id="path97667" />
      <path
         d="m 165.51926,85.1275 c -2.38933,0 -5.46133,-2.090668 -6.784,-4.608004 l -0.42667,0.04267 c -0.17066,1.536001 -0.64,3.114669 -0.98133,4.39467 l 0.0853,0.128 c 0,0 2.77334,1.920002 7.76534,1.920002 5.24801,0 9.30134,-3.200003 9.30134,-8.14934 0,-4.949337 -4.224,-7.210672 -7.63734,-8.53334 -2.176,-0.810667 -5.20533,-2.048001 -5.20533,-5.589337 0,-1.536001 0.85333,-3.242669 1.96266,-3.840003 0.72534,-0.384 1.62134,-0.512 2.60267,-0.512 2.34667,0 4.65067,1.834668 5.80267,4.480003 l 0.42667,-0.04267 c 0.17067,-1.536001 0.59733,-2.986668 0.98133,-4.266669 l -0.0853,-0.128001 c 0,0 -1.792,-1.920001 -6.784,-1.920001 -1.15201,0 -2.43201,0.213334 -3.66934,0.725334 -2.51734,1.066667 -4.69334,3.541336 -4.69334,6.656005 0,4.480003 3.79734,6.570671 7.33867,8.064006 2.77334,1.152001 4.99201,2.560002 4.99201,6.186671 0,3.200003 -2.47467,4.992004 -4.99201,4.992004 z"
         style="font-family:'Linux Biolinum O';-inkscape-font-specification:'Linux Biolinum O'"
         id="path97669" />
      <path
         d="M 184.88989,83.079498 V 62.51415 c 0,-1.493335 1.49334,-1.706668 3.584,-1.706668 9.21601,0 11.98935,7.082672 11.98935,13.653343 0,8.618673 -4.90667,10.325341 -10.92268,10.325341 -4.18134,0 -4.65067,-0.341333 -4.65067,-1.706668 z m -1.83467,-24.021351 c -1.45066,0 -2.176,-0.128 -2.176,-0.128 l -0.0853,0.128 c 0.34133,2.432002 0.42667,5.333337 0.42667,8.53334 v 10.453341 c 0,3.200002 -0.0853,6.229338 -0.42667,8.53334 l 0.0427,0.128 c 0,0 0.72534,-0.128 2.21867,-0.128 3.02934,0 3.41334,0.08533 7.80801,0.08533 6.016,0 13.99468,-2.730669 13.99468,-13.226677 0,-7.936005 -6.57068,-14.506677 -14.76268,-14.506677 -2.73067,0 -4.30934,0.128 -7.04001,0.128 z"
         style="font-family:'Linux Biolinum O';-inkscape-font-specification:'Linux Biolinum O'"
         id="path97671" />
      <path
         d="m 224.44188,59.058147 h -11.09334 c -1.45066,0 -2.176,-0.128 -2.176,-0.128 l -0.0853,0.128 c 0.34133,2.432002 0.42666,5.333337 0.42666,8.53334 v 10.453341 c 0,3.200002 -0.0853,6.229338 -0.42666,8.53334 l 0.0427,0.128 c 0,0 0.72534,-0.128 2.21867,-0.128 1.45067,0 2.176,0.128 2.176,0.128 l 0.0853,-0.128 c -0.34134,-2.432002 -0.42667,-5.333338 -0.42667,-8.53334 v -4.992004 c 2.048,0 6.57067,0.128 9.51467,0.426667 l 0.128,-0.128 c -0.0853,-0.384 -0.128,-0.981334 -0.128,-1.365334 0,-0.384001 0.0427,-0.981334 0.128,-1.365335 l -0.128,-0.128 c -2.51733,0.213334 -4.48,0.426667 -9.51467,0.426667 v -3.328002 c 0,-0.725334 0.0427,-5.120004 0.34133,-6.144005 5.71734,0 11.60535,0.512001 11.60535,0.512001 l 0.0853,-0.170667 c -0.0427,-0.341334 -0.0853,-0.896001 -0.0853,-1.280001 0,-0.341334 0.0427,-0.853334 0.0853,-1.450668 l -0.0853,-0.128 c -0.68267,0.08533 -1.664,0.128 -2.68801,0.128 z"
         style="font-family:'Linux Biolinum O';-inkscape-font-specification:'Linux Biolinum O'"
         id="path97673" />
    </g>
  </g>
</svg>
